<svg id="Component_56_3" data-name="Component 56 – 3" xmlns="http://www.w3.org/2000/svg" width="125" height="125" viewBox="0 0 125 125">
  <path id="Path_3488" data-name="Path 3488" d="M856.615,446.482a62.5,62.5,0,1,0-62.5-62.5,62.5,62.5,0,0,0,62.5,62.5" transform="translate(-794.115 -321.482)" fill="#eaf3fe"/>
  <path id="Path_3489" data-name="Path 3489" d="M896.259,395.026a7.71,7.71,0,0,0-9.953-.171l-8.772,7.02a1.512,1.512,0,0,1-.953.328h-5.923a7.914,7.914,0,0,0,.683-4.6,8.2,8.2,0,0,0-8.229-6.792H842.579a13.614,13.614,0,0,0-8.2,2.734l-5.468,4.1H817.9a1.145,1.145,0,0,0-1.139,1.138v2.279A1.147,1.147,0,0,0,817.9,402.2h12.531l6.677-5.013a9.158,9.158,0,0,1,5.468-1.822h20.888a3.418,3.418,0,0,1,.119,6.835H850.937a2.279,2.279,0,1,0-.009,4.557H876.6a6.145,6.145,0,0,0,3.8-1.325l8.771-7.006a3.161,3.161,0,0,1,4.044,0,3.026,3.026,0,0,1,.262,4.273,2.846,2.846,0,0,1-.391.369l-14.351,11.487a6.059,6.059,0,0,1-3.8,1.323H817.9a1.146,1.146,0,0,0-1.139,1.138V419.3a1.147,1.147,0,0,0,1.139,1.14h57.026a10.593,10.593,0,0,0,6.636-2.336l14.367-11.49a7.606,7.606,0,0,0,1.179-10.69,7.721,7.721,0,0,0-.852-.9Z" transform="translate(-794.115 -321.482)" fill="#463ba8"/>
  <path id="Path_3490" data-name="Path 3490" d="M853.315,366.849l8.031,2.292a2.917,2.917,0,0,1-.8,5.724h-5.255a5.5,5.5,0,0,1-3.217-1.042,1.074,1.074,0,0,0-1.4.171l-1.623,1.623a1.153,1.153,0,0,0,.143,1.737,9.988,9.988,0,0,0,6.107,2.064h.2v3.419a1.144,1.144,0,0,0,1.139,1.138h2.279a1.146,1.146,0,0,0,1.138-1.138v-3.419h.2a7.709,7.709,0,0,0,7.361-5.011,7.51,7.51,0,0,0-4.658-9.545c-.113-.039-.228-.076-.342-.109l-8.416-2.406a2.917,2.917,0,0,1,.8-5.724h5.252a5.5,5.5,0,0,1,3.218,1.041,1.071,1.071,0,0,0,1.4-.171l1.623-1.623a1.159,1.159,0,0,0-.026-1.637,1.231,1.231,0,0,0-.117-.1,10.093,10.093,0,0,0-6.109-2.05h-.194v-3.417a1.146,1.146,0,0,0-1.139-1.139h-2.278a1.148,1.148,0,0,0-1.139,1.139v3.417H855a7.476,7.476,0,0,0-7.467,7.485c0,.234.013.469.035.7a7.782,7.782,0,0,0,5.751,6.578" transform="translate(-794.115 -321.482)" fill="#6edcf9"/>
</svg>
