<svg xmlns="http://www.w3.org/2000/svg" xmlns:xlink="http://www.w3.org/1999/xlink" width="46" height="60.239" viewBox="0 0 46 60.239">
  <defs>
    <clipPath id="clip-path">
      <rect id="Rectangle_1992" data-name="Rectangle 1992" width="29.14" height="55.777" transform="translate(0 0)" fill="#6edcf9"/>
    </clipPath>
  </defs>
  <g id="Group_1230" data-name="Group 1230" transform="translate(-367.999 -88.762)">
    <g id="Mask_Group_58" data-name="Mask Group 58" transform="translate(384.859 88.762)" clip-path="url(#clip-path)">
      <path id="Path_3656" data-name="Path 3656" d="M357.545,67.666,335.462,45.825a6.155,6.155,0,0,0-8.637,0l-5.833,5.769-16.25,16.072a5.994,5.994,0,0,0,0,8.543l16.25,16.072,5.833,5.769a6.155,6.155,0,0,0,8.637,0l22.083-21.841A5.994,5.994,0,0,0,357.545,67.666Z" transform="translate(-302.004 -44.156)" fill="#98c4f9"/>
    </g>
    <path id="Path_3657" data-name="Path 3657" d="M260.68,289.372,249.9,278.591l-10.78,10.781a4.052,4.052,0,0,0,0,5.73l10.78,10.781L260.68,295.1A4.052,4.052,0,0,0,260.68,289.372Z" transform="translate(130.066 -156.882)" fill="#fbb230"/>
  </g>
</svg>
