<svg xmlns="http://www.w3.org/2000/svg" width="106" height="60" viewBox="0 0 106 60">
  <g id="trusted_icon" data-name="trusted icon" fill="#463ba8">
    <path d="M 54.78696441650391 59.74999618530273 C 52.96836853027344 59.74999618530273 51.231689453125 59.19204711914062 49.76421737670898 58.13627243041992 C 48.1183967590332 56.87873840332031 42.20866394042969 52.0911979675293 36.49352645874023 47.4613037109375 C 31.03199195861816 43.03684997558594 25.38452529907227 38.46176910400391 23.61941909790039 37.09926223754883 L 23.56217956542969 37.05507659912109 L 23.49019241333008 37.04826354980469 L 2.0670325756073 35.02299880981445 C 1.444912552833557 34.96471786499023 0.8783659338951111 34.6159553527832 0.5512992739677429 34.09004974365234 C 0.2226192802190781 33.56779861450195 0.1600059419870377 32.90859603881836 0.3831126093864441 32.32555770874023 L 12.35817909240723 1.518783926963806 C 12.55388641357422 1.021130561828613 12.94920635223389 0.6157439351081848 13.44241905212402 0.4074639081954956 C 13.69157886505127 0.3030639290809631 13.95471286773682 0.2499972581863403 14.22384548187256 0.2499972581863403 C 14.49299240112305 0.2499972581863403 14.75611305236816 0.3030639290809631 15.00592613220215 0.4077305793762207 L 30.61993980407715 6.955970764160156 L 30.66073989868164 6.973077297210693 L 30.70491218566895 6.975143909454346 L 43.10780715942383 7.556917190551758 L 43.21937942504883 7.562157154083252 L 43.29772567749023 7.4825439453125 C 43.63323211669922 7.141557216644287 44.08309936523438 6.930037021636963 44.56443405151367 6.886943817138672 L 56.96592712402344 5.845983982086182 C 57.02488708496094 5.840343952178955 57.08218002319336 5.837610721588135 57.13923263549805 5.837610721588135 C 57.31771087646484 5.837610721588135 57.50224685668945 5.864077091217041 57.68771362304688 5.916264057159424 L 74.12809753417969 10.64011764526367 L 74.22165679931641 10.66699695587158 L 74.30875396728516 10.62354373931885 L 88.89680480957031 3.344823837280273 C 89.16645812988281 3.215197324752808 89.47096252441406 3.145823955535889 89.77413940429688 3.145823955535889 C 90.01227569580078 3.145823955535889 90.24648284912109 3.187117338180542 90.47027587890625 3.26855731010437 C 90.98201751708984 3.454770565032959 91.39830017089844 3.845357179641724 91.61238098144531 4.340157032012939 L 91.61375427246094 4.343357086181641 L 91.61521911621094 4.346503734588623 L 105.5343246459961 34.20958709716797 L 105.5416564941406 34.26411819458008 L 105.5467910766602 34.30223846435547 L 105.5631256103516 34.3370361328125 C 105.8324356079102 34.91066360473633 105.8090209960938 35.58426284790039 105.5004959106445 36.138916015625 C 105.1899490356445 36.69403839111328 104.6246566772461 37.07203674316406 103.9886322021484 37.14954376220703 L 85.24844360351562 39.38907623291016 L 85.16825866699219 39.39866256713867 L 85.10881805419922 39.4533576965332 L 82.52777862548828 41.82857131958008 L 82.43154144287109 41.91714477539062 L 82.44941711425781 42.04670333862305 C 82.67200469970703 43.65994262695312 82.74938201904297 46.65011596679688 80.76668548583984 48.55087661743164 C 79.72090911865234 49.51807022094727 78.35494995117188 50.05242538452148 76.92373657226562 50.05242538452148 C 76.92365264892578 50.05242538452148 76.92361450195312 50.05242538452148 76.92352294921875 50.05242538452148 C 76.8448486328125 50.05242538452148 76.76515197753906 50.05075836181641 76.68666076660156 50.04748916625977 L 76.68145751953125 50.04727554321289 L 76.67626190185547 50.04727554321289 L 76.53974151611328 50.04727554321289 L 76.27169799804688 50.04727554321289 L 76.29033660888672 50.31466293334961 C 76.38652801513672 51.69412994384766 75.87261962890625 53.04330444335938 74.88040924072266 54.0162353515625 C 73.99462127685547 54.88471603393555 72.77187347412109 55.3828239440918 71.52571105957031 55.3828239440918 C 71.39689636230469 55.3828239440918 71.26647186279297 55.37754440307617 71.1380615234375 55.36714553833008 L 71.129150390625 55.36642456054688 L 71.12021636962891 55.3663444519043 C 70.22540283203125 55.35791778564453 69.3194580078125 55.23695755004883 68.42756652832031 55.0068359375 L 68.24819183349609 54.96055603027344 L 68.15170288085938 55.11867904663086 C 67.18836975097656 56.697265625 65.59243011474609 58.68144989013672 63.46003341674805 59.1695442199707 C 63.14033889770508 59.24686431884766 62.80447387695312 59.28571701049805 62.458740234375 59.28571701049805 C 61.79405975341797 59.28571701049805 61.12582015991211 59.12835693359375 60.52627182006836 58.83063888549805 L 60.43225860595703 58.78394317626953 L 60.33308410644531 58.8183708190918 C 58.64963150024414 59.40287780761719 56.88272476196289 59.71464920043945 55.08145904541016 59.74503707885742 C 54.98099136352539 59.74835586547852 54.88330078125 59.74999618530273 54.78696441650391 59.74999618530273 Z M 31.89960670471191 10.97239685058594 L 31.85343170166016 11.17723751068115 L 26.67827224731445 34.13319778442383 L 26.6442985534668 34.28387832641602 L 26.76385879516602 34.38167572021484 C 31.11127281188965 37.93802261352539 49.20395278930664 52.66134262084961 52.26501846313477 54.94694519042969 L 52.27532577514648 54.95463562011719 L 52.2863655090332 54.96123886108398 C 53.14615249633789 55.47495651245117 54.13047409057617 55.74649047851562 55.13288497924805 55.74647903442383 C 55.47231292724609 55.74646377563477 55.81345748901367 55.71498489379883 56.14683151245117 55.65290451049805 L 56.64287185668945 55.56054306030273 L 56.26889801025391 55.22183609008789 C 52.92495346069336 52.19318389892578 49.54010009765625 48.88438415527344 49.51203155517578 48.85650253295898 L 49.49628448486328 48.84086227416992 L 49.47803115844727 48.8282356262207 C 48.98669815063477 48.48855590820312 48.67570114135742 47.95460891723633 48.62477874755859 47.36328887939453 C 48.57353973388672 46.77220916748047 48.78876495361328 46.19482421875 49.21528625488281 45.77902221679688 C 49.58646011352539 45.41381072998047 50.09971237182617 45.20481109619141 50.62425994873047 45.20481109619141 C 50.69007110595703 45.20481109619141 50.75661849975586 45.20807647705078 50.82207107543945 45.21453094482422 C 51.41851425170898 45.27298355102539 51.95240783691406 45.58903884887695 52.28703308105469 46.08164978027344 L 52.36143112182617 46.19118499755859 L 52.40174102783203 46.19118499755859 C 52.56297302246094 46.33866882324219 53.0240364074707 46.77838134765625 53.58657836914062 47.31486511230469 C 55.67028427124023 49.30207824707031 59.54885864257812 53.00101089477539 62.00392532348633 55.09001159667969 L 62.01112747192383 55.09613037109375 L 62.01875305175781 55.10169219970703 C 62.1693115234375 55.21135711669922 62.37972640991211 55.34207534790039 62.527099609375 55.34207534790039 L 62.55312728881836 55.34207534790039 L 62.57859420776367 55.33671569824219 C 63.34763336181641 55.17482376098633 64.295166015625 53.8048095703125 64.66684722900391 53.22328948974609 L 64.78079223632812 53.04502487182617 L 64.62381744384766 52.90317153930664 L 53.76689910888672 43.0917854309082 C 53.36354064941406 42.73274230957031 53.12604522705078 42.24099731445312 53.09675216674805 41.70589065551758 C 53.06753921508789 41.17187881469727 53.24935150146484 40.65846252441406 53.60869979858398 40.2602653503418 C 53.99169921875 39.83584976196289 54.54093933105469 39.59243774414062 55.11559295654297 39.59243774414062 C 55.61371231079102 39.59243774414062 56.09236526489258 39.7743034362793 56.46337890625 40.10454559326172 L 68.28268432617188 50.82852935791016 L 68.32186889648438 50.86408996582031 L 68.37210083007812 50.88071823120117 C 69.49916839599609 51.25383758544922 70.43366241455078 51.44299697875977 71.14963531494141 51.44297027587891 C 71.77115631103516 51.44294357299805 72.01904296875 51.29497146606445 72.06243133544922 51.26530456542969 L 72.13523101806641 51.21553039550781 L 72.16068267822266 51.1310920715332 C 72.39657592773438 50.34866333007812 72.36976623535156 49.49668884277344 72.08515167236328 48.73211669921875 L 72.06503295898438 48.67807769775391 L 72.02328491210938 48.6383056640625 L 59.31596755981445 36.53435897827148 C 58.92799377441406 36.16598510742188 58.70790100097656 35.67005157470703 58.69595336914062 35.13766479492188 C 58.68397903442383 34.60471725463867 58.88187408447266 34.09881210327148 59.25317764282227 33.71311569213867 C 59.63422012329102 33.31527709960938 60.14889907836914 33.0964241027832 60.70285797119141 33.0964241027832 C 61.22336578369141 33.0964241027832 61.71744537353516 33.29339599609375 62.09410095214844 33.65103912353516 L 74.82719421386719 45.76267623901367 L 74.87451171875 45.80767822265625 L 74.93780517578125 45.82379913330078 C 75.60171508789062 45.99285125732422 76.18784332275391 46.07855606079102 76.67993927001953 46.07854461669922 C 77.15703582763672 46.07852172851562 77.53101348876953 45.99711990356445 77.79586791992188 45.83609008789062 L 77.81832885742188 45.85517120361328 L 77.98308563232422 45.69480895996094 C 78.74699401855469 44.9361457824707 78.54475402832031 42.79874420166016 78.46456909179688 42.1617317199707 L 78.45442199707031 42.08106231689453 L 78.39875030517578 42.02179718017578 C 78.08750152587891 41.69042205810547 77.60724639892578 41.17570495605469 76.99922943115234 40.52405166625977 C 73.89491271972656 37.19694519042969 67.43531036376953 30.27377128601074 62.45003128051758 25.22034454345703 C 60.22800445556641 22.9437313079834 58.40639114379883 21.88294410705566 56.71823120117188 21.88294410705566 C 54.64781951904297 21.88294410705566 53.03472518920898 23.42283630371094 50.99248504638672 25.37240982055664 L 50.96941757202148 25.39443778991699 C 48.58292770385742 27.65779685974121 46.28204727172852 28.80569076538086 44.13129806518555 28.80569076538086 C 42.60596466064453 28.80569076538086 41.18063354492188 28.23538398742676 39.89485931396484 27.11059761047363 C 37.06736755371094 24.6921443939209 37.20595169067383 18.45734405517578 37.26242065429688 17.23203659057617 C 37.27658081054688 16.91189765930176 37.36869049072266 16.60003852844238 37.52987670898438 16.32363891601562 L 37.583740234375 16.24090385437012 L 40.48184585571289 11.76169013977051 L 40.71776580810547 11.3970775604248 L 40.28397750854492 11.37618350982666 L 32.10934066772461 10.98250389099121 L 31.89960670471191 10.97239685058594 Z M 56.73400497436523 17.97234344482422 C 59.45651245117188 17.97234344482422 62.26443099975586 19.44665145874023 65.31822204589844 22.4795036315918 C 70.544189453125 27.72731781005859 77.49253845214844 35.18606567382812 80.23728942871094 38.14925003051758 L 80.40671539306641 38.33214569091797 L 80.590087890625 38.16323852539062 L 81.80568695068359 37.04343795776367 L 81.93379211425781 36.92541122436523 L 81.86746215820312 36.76435852050781 L 72.84717559814453 14.8621301651001 L 72.81700897216797 14.78885078430176 L 72.75012969970703 14.7463436126709 C 72.54757690429688 14.61761093139648 72.37641906738281 14.4635705947876 72.24141693115234 14.28850364685059 L 72.19148254394531 14.22375679016113 L 72.11295318603516 14.20102405548096 L 56.95753860473633 9.814250946044922 L 56.91323089599609 9.801424026489258 L 56.86725997924805 9.805263519287109 L 46.01033782958984 10.71073055267334 L 45.88615417480469 10.72109031677246 L 45.81967163085938 10.82647705078125 L 41.34922027587891 17.91269111633301 L 41.31301879882812 17.97006416320801 L 41.310791015625 18.03786468505859 C 41.23424530029297 20.36551666259766 41.73743438720703 23.47385025024414 42.52543258666992 24.14974403381348 C 42.85319137573242 24.43272972106934 43.34946060180664 24.86118316650391 44.17388534545898 24.86110305786133 C 45.25828552246094 24.86101150512695 46.56903076171875 24.11615753173828 48.18103408813477 22.58399772644043 C 50.22906112670898 20.63747787475586 53.03316497802734 17.97234344482422 56.73400497436523 17.97234344482422 Z M 88.83759307861328 7.856783866882324 L 88.60781860351562 7.970890522003174 L 76.97165679931641 13.74930381774902 L 76.76340484619141 13.85271739959717 L 76.85147094726562 14.06790351867676 L 85.46651458740234 35.11682510375977 L 85.53879547119141 35.29341125488281 L 85.72819519042969 35.27029037475586 L 100.3854598999023 33.48062515258789 L 100.7267913818359 33.43894577026367 L 100.5818557739258 33.12710571289062 L 88.94570922851562 8.089437484741211 L 88.83759307861328 7.856783866882324 Z M 15.35520553588867 4.864583969116211 L 15.26231288909912 5.103450775146484 L 5.207179069519043 30.9595832824707 L 5.087245941162109 31.26797103881836 L 5.416672706604004 31.29909133911133 L 22.59804534912109 32.92190551757812 L 22.81715202331543 32.94259643554688 L 22.86545944213867 32.72789001464844 L 27.9041919708252 10.33183765411377 L 27.95023345947266 10.12715721130371 L 27.75667190551758 10.04627704620361 L 15.59169960021973 4.96338415145874 L 15.35520553588867 4.864583969116211 Z" stroke="none"/>
    <path d="M 54.78696441650391 59.49999618530273 C 54.88069915771484 59.49999618530273 54.97555160522461 59.49840927124023 55.06891250610352 59.49527740478516 L 55.07723236083984 59.49506378173828 C 56.85196685791016 59.46512985229492 58.59270095825195 59.15799713134766 60.2510871887207 58.58219909667969 L 60.44942092895508 58.51334381103516 L 60.63745880126953 58.60671615600586 C 61.20264434814453 58.88737106323242 61.83243179321289 59.03571701049805 62.458740234375 59.03571701049805 C 62.78468704223633 59.03571701049805 63.10078048706055 58.99922561645508 63.39822006225586 58.92726516723633 L 63.40424728393555 58.92583847045898 C 65.45175170898438 58.45719909667969 67.00000762939453 56.52599716186523 67.93830108642578 54.98844909667969 L 68.13128662109375 54.67219543457031 L 68.49002075195312 54.7647590637207 C 69.36229705810547 54.98982238769531 70.24801635742188 55.10811614990234 71.12258148193359 55.11635589599609 L 71.15823364257812 55.11795806884766 C 71.27999114990234 55.12782287597656 71.40363311767578 55.1328239440918 71.52571105957031 55.1328239440918 C 72.70697784423828 55.1328239440918 73.86592864990234 54.66077041625977 74.70537567138672 53.83774566650391 C 75.64523315429688 52.91614532470703 76.13203430175781 51.63837051391602 76.04095458984375 50.33205032348633 L 76.003662109375 49.79727554321289 L 76.697021484375 49.79770278930664 C 76.77232360839844 49.80083847045898 76.84854125976562 49.80242538452148 76.92373657226562 49.80242538452148 C 78.29041290283203 49.80242538452148 79.59478759765625 49.29273223876953 80.59706878662109 48.36716079711914 C 82.49607086181641 46.54301452636719 82.41771697998047 43.64596176147461 82.20176696777344 42.08087539672852 L 82.16600799560547 41.82174301147461 L 85.05839538574219 39.16001129150391 L 103.9583892822266 36.90137100219727 C 104.5155410766602 36.83349227905273 105.0105667114258 36.50262451171875 105.2820205688477 36.01738357543945 C 105.5515823364258 35.53278350830078 105.5720596313477 34.94434356689453 105.3368301391602 34.44327545166016 L 105.3041534423828 34.37366485595703 L 105.2916412353516 34.28066635131836 L 91.38292694091797 4.43942403793335 C 91.19602966308594 4.007437229156494 90.83222198486328 3.666303873062134 90.38479614257812 3.503477334976196 C 90.18846893310547 3.432050704956055 89.98301696777344 3.395823955535889 89.77413940429688 3.395823955535889 C 89.50928497314453 3.395823955535889 89.24326324462891 3.456183433532715 89.00460815429688 3.570418357849121 L 74.24616241455078 10.934157371521 L 57.61999130249023 6.156917095184326 C 57.40501403808594 6.096422672271729 57.19318008422852 6.075334548950195 56.99285888671875 6.094570636749268 L 56.98684692382812 6.095117092132568 L 44.58672714233398 7.13595724105835 C 44.16437911987305 7.173757076263428 43.7698974609375 7.359117031097412 43.47592544555664 7.657877445220947 L 43.31924438476562 7.817117214202881 L 30.60483169555664 7.220730781555176 L 14.90931224822998 0.6383172273635864 C 14.69027233123779 0.5465306043624878 14.45964622497559 0.4999972581863403 14.22384548187256 0.4999972581863403 C 13.98805904388428 0.4999972581863403 13.75743293762207 0.5465306043624878 13.5396728515625 0.6377705931663513 C 13.10804557800293 0.8200372457504272 12.76207256317139 1.174837231636047 12.5911922454834 1.609357237815857 L 0.6166059374809265 32.4149055480957 C 0.4214726090431213 32.92485046386719 0.4758859276771545 33.50087738037109 0.7635926008224487 33.95802307128906 C 1.049645900726318 34.41798400878906 1.545552611351013 34.72304916381836 2.090552568435669 34.77410507202148 L 23.65769958496094 36.81298446655273 L 23.77217864990234 36.9013557434082 C 25.53960609436035 38.26566314697266 31.18824577331543 42.84169006347656 36.65089797973633 47.26705169677734 C 42.36152267456055 51.89329147338867 48.26635360717773 56.67685699462891 49.91312026977539 57.93542098999023 C 51.33713531494141 58.95894622802734 53.02237701416016 59.49999618530273 54.78696441650391 59.49999618530273 M 31.70191192626953 10.71258354187012 L 41.16357803344727 11.16825103759766 L 37.74151229858398 16.4570426940918 C 37.60337448120117 16.69665908813477 37.5244255065918 16.96638107299805 37.51215362548828 17.24354362487793 C 37.48049926757812 17.93054389953613 37.44017791748047 19.74114418029785 37.74889755249023 21.71146392822266 C 38.13177871704102 24.15506362915039 38.92929840087891 25.95573043823242 40.05525970458984 26.91878318786621 L 40.05947113037109 26.92242431640625 C 41.29833984375 28.00618362426758 42.66830062866211 28.55569076538086 44.13129806518555 28.55569076538086 C 46.21591186523438 28.55569076538086 48.45890045166016 27.43087768554688 50.79679107666016 25.21359634399414 L 50.81982040405273 25.19161033630371 C 52.82012557983398 23.28207778930664 54.54764556884766 21.63294410705566 56.71823120117188 21.63294410705566 C 58.4782600402832 21.63294410705566 60.35672760009766 22.71767807006836 62.62800598144531 25.04477119445801 C 67.61573791503906 30.10066413879395 74.07692718505859 37.02556991577148 77.18202209472656 40.35348892211914 C 77.78988647460938 41.00498580932617 78.27000427246094 41.51956939697266 78.58097839355469 41.85065078735352 L 78.69229888916016 41.96916961669922 L 78.71260833740234 42.13051605224609 C 78.81999206542969 42.98365020751953 78.98103332519531 45.05604934692383 78.15924835205078 45.87219619750977 L 77.83149719238281 46.19442367553711 L 77.761962890625 46.13534164428711 C 77.47676086425781 46.26372909545898 77.11482238769531 46.32851791381836 76.67993927001953 46.32854461669922 C 76.16704559326172 46.32855606079102 75.56015014648438 46.24024963378906 74.87611389160156 46.06606292724609 L 74.74954223632812 46.03383636474609 L 61.92196655273438 33.83232879638672 C 61.59196472167969 33.51898574829102 61.15900421142578 33.3464241027832 60.70285797119141 33.3464241027832 C 60.21771240234375 33.3464241027832 59.76715087890625 33.53789138793945 59.43328475952148 33.88650512695312 C 59.10852432250977 34.22385025024414 58.93543243408203 34.66619873046875 58.94588470458984 35.13204956054688 C 58.95634078979492 35.59735870361328 59.1487922668457 36.03089141845703 59.4883918762207 36.35334396362305 L 72.27922058105469 48.53682327270508 L 72.31944274902344 48.64490509033203 C 72.62297821044922 49.4603157043457 72.65160369873047 50.36888885498047 72.40004730224609 51.20326232910156 L 72.34912872314453 51.37213134765625 L 72.20353698730469 51.47167587280273 C 72.10623168945312 51.5381965637207 71.80876922607422 51.69294357299805 71.14964294433594 51.69297027587891 C 70.40695190429688 51.69301223754883 69.44600677490234 51.49956893920898 68.29354095458984 51.11804962158203 L 68.19306945800781 51.08479690551758 L 56.29716491699219 40.29127883911133 C 55.97198104858398 40.00183868408203 55.55235290527344 39.84243774414062 55.11559295654297 39.84243774414062 C 54.61157989501953 39.84243774414062 54.12997817993164 40.05578231811523 53.7943000793457 40.4277458190918 C 53.47990036010742 40.77614212036133 53.32083129882812 41.22521209716797 53.34637832641602 41.69223785400391 C 53.37200546264648 42.16034317016602 53.57987213134766 42.59061050415039 53.93452453613281 42.90630340576172 L 65.10539245605469 53.00139617919922 L 64.87750244140625 53.35792922973633 C 64.39471435546875 54.11325073242188 63.46076583862305 55.40649032592773 62.63010025024414 55.58135604858398 L 62.57915115356445 55.59207534790039 L 62.527099609375 55.59207534790039 C 62.45607376098633 55.59207534790039 62.26740646362305 55.59207534790039 61.87156677246094 55.30377197265625 L 61.84191131591797 55.28041076660156 C 59.38144683837891 53.18682479858398 55.49953842163086 49.48470306396484 53.41403198242188 47.49578475952148 C 52.93519592285156 47.03912353515625 52.50714111328125 46.63089370727539 52.30378723144531 46.44118499755859 L 52.22901916503906 46.44118499755859 L 52.08023071289062 46.22212982177734 C 51.78743362426758 45.79109191894531 51.32003402709961 45.51453018188477 50.79752731323242 45.46332931518555 C 50.740234375 45.45767593383789 50.68193817138672 45.45481109619141 50.62425994873047 45.45481109619141 C 50.16476440429688 45.45481109619141 49.71541976928711 45.63763809204102 49.38979339599609 45.95802307128906 C 49.01716613769531 46.32130432128906 48.82909774780273 46.82558441162109 48.87385940551758 47.34185028076172 C 48.91835403442383 47.85863876342773 49.19039154052734 48.3254508972168 49.62019348144531 48.62259674072266 L 49.65671157836914 48.6478385925293 L 49.68820571899414 48.67911911010742 C 49.71623229980469 48.70695877075195 53.09639358520508 52.01115798950195 56.43672561645508 55.03654479980469 L 57.18465805053711 55.71395874023438 L 56.19260406494141 55.89867782592773 C 55.84418106079102 55.96355819702148 55.48764419555664 55.99646377563477 55.13290023803711 55.99647903442383 C 54.0853271484375 55.99649047851562 53.05667114257812 55.71271896362305 52.15813827514648 55.17583847045898 L 52.13605880737305 55.16265106201172 L 52.11544418334961 55.14726257324219 C 49.05109786987305 52.85922241210938 30.9538459777832 38.13223648071289 26.60556602478027 34.57517242431641 L 26.36645889282227 34.37957000732422 L 31.70191192626953 10.71258354187012 M 56.73400497436523 18.22234344482422 C 53.13301849365234 18.22234344482422 50.3707389831543 20.84771728515625 48.353271484375 22.76519775390625 C 46.69255447387695 24.34366416931152 45.32547378540039 25.11101150512695 44.17391204833984 25.11110305786133 C 43.25647354125977 25.11118316650391 42.69619369506836 24.62746429443359 42.3626708984375 24.33950424194336 C 41.40491104125977 23.51802444458008 40.99128723144531 20.14717102050781 41.0609245300293 18.02963638305664 L 41.06539154052734 17.8940372467041 L 45.74120712280273 10.48230361938477 L 56.93841934204102 9.548463821411133 L 72.33952331542969 14.00634384155273 L 72.43937683105469 14.13582420349121 C 72.55660247802734 14.28782367706299 72.70627593994141 14.42225074768066 72.88421630859375 14.53535747528076 L 73.01799011230469 14.62037086486816 L 82.23128509521484 36.99127578735352 L 80.39272308349609 38.68494415283203 L 80.05388641357422 38.31912994384766 C 77.31004333496094 35.3569450378418 70.36418151855469 27.90083694458008 65.14205932617188 22.65689086914062 C 62.13747406005859 19.67288970947266 59.38718032836914 18.22234344482422 56.73400497436523 18.22234344482422 M 88.9561767578125 7.518757343292236 L 101.0984344482422 33.64542388916016 L 85.37968444824219 35.56468963623047 L 76.44395446777344 13.73222351074219 L 88.9561767578125 7.518757343292236 M 15.2150993347168 4.535090446472168 L 28.24019241333008 9.977370262145996 L 23.01273918151855 33.21218490600586 L 4.734325885772705 31.48575782775879 L 15.2150993347168 4.535090446472168 M 54.78696823120117 59.99999618530273 C 52.9308967590332 59.99999618530273 51.12016296386719 59.42065811157227 49.61532592773438 58.33713150024414 C 46.3917121887207 55.87469100952148 27.06508636474609 40.07483673095703 23.46665954589844 37.29715728759766 L 2.043499231338501 35.27188873291016 C 1.34321928024292 35.20627593994141 0.7089792490005493 34.81697082519531 0.3390059471130371 34.22207641601562 C -0.03536739200353622 33.62723541259766 -0.1014473959803581 32.8923454284668 0.1496192663908005 32.23620986938477 L 12.12516593933105 1.428210616111755 C 12.34535217285156 0.8682906031608582 12.78579235076904 0.4133705794811249 13.34516620635986 0.1771572530269623 C 13.90892505645752 -0.05905608087778091 14.53876686096191 -0.05905608087778091 15.1025390625 0.1771572530269623 L 30.71663284301758 6.725423812866211 L 43.11952590942383 7.307197093963623 C 43.49828720092773 6.922264099121094 44.00479125976562 6.686050415039062 44.54214096069336 6.637943744659424 L 56.94501876831055 5.596863746643066 C 57.21810531616211 5.570624351501465 57.49116134643555 5.601250648498535 57.75543212890625 5.675610542297363 L 74.19713592529297 10.39983749389648 L 88.78519439697266 3.121117353439331 C 89.34014892578125 2.854278564453125 89.97878265380859 2.823662281036377 90.55576324462891 3.033623933792114 C 91.13271331787109 3.243570566177368 91.59957885742188 3.680984020233154 91.84181976318359 4.240890502929688 L 105.7770156860352 34.13850402832031 L 105.789436340332 34.23079681396484 C 106.0933532714844 34.87815856933594 106.0669097900391 35.63491821289062 105.7189788818359 36.26043701171875 C 105.3666229248047 36.89030456542969 104.7368087768555 37.31022262573242 104.0188751220703 37.397705078125 L 85.27811431884766 39.6373176574707 L 82.69707489013672 42.01253128051758 C 82.93487548828125 43.73601150512695 82.97016906738281 46.78478240966797 80.939697265625 48.73134231567383 C 79.78577423095703 49.79861831665039 78.25286865234375 50.36296463012695 76.67626190185547 50.29727554321289 L 76.53974151611328 50.29727554321289 C 76.6409912109375 51.74954223632812 76.09928894042969 53.17118453979492 75.05544281005859 54.19474411010742 C 74.01596832275391 55.21390533447266 72.57584381103516 55.7344856262207 71.11787414550781 55.61632919311523 C 70.18856811523438 55.60758209228516 69.26361846923828 55.48074340820312 68.36509704589844 55.24890518188477 C 67.39610290527344 56.83678436279297 65.7708740234375 58.89707565307617 63.51580429077148 59.41323852539062 C 63.17226028442383 59.49635696411133 62.81549835205078 59.53571701049805 62.458740234375 59.53571701049805 C 61.7496337890625 59.53571701049805 61.04932403564453 59.36949157714844 60.41508483886719 59.05454254150391 C 58.70168685913086 59.64943695068359 56.90032577514648 59.96438217163086 55.08567428588867 59.99499893188477 C 54.98590087890625 59.99833679199219 54.88651657104492 59.99999618530273 54.78696823120117 59.99999618530273 Z M 32.09731292724609 11.23221015930176 L 26.92215347290039 34.18817138671875 C 31.5202465057373 37.9495849609375 49.41512680053711 52.50702285766602 52.41459274291992 54.74662399291992 C 53.52003860473633 55.40713119506836 54.83259582519531 55.64332580566406 56.10107421875 55.40713119506836 C 52.89909744262695 52.50706481933594 49.52965927124023 49.22635650634766 49.33585739135742 49.03387832641602 C 48.78531265258789 48.65326309204102 48.43295288085938 48.04962539672852 48.37569808959961 47.38474273681641 C 48.31843185424805 46.72417068481445 48.56067276000977 46.06805038452148 49.04076766967773 45.60000991821289 C 49.51646041870117 45.13195419311523 50.18153381347656 44.90011215209961 50.84661865234375 44.96574401855469 C 51.51604461669922 45.03134536743164 52.11946105957031 45.39003753662109 52.49383163452148 45.94118499755859 C 52.54671096801758 45.94118499755859 58.78334045410156 52.02138519287109 62.16593933105469 54.89961242675781 C 62.23200607299805 54.94773101806641 62.44781875610352 55.09207534790039 62.527099609375 55.09207534790039 C 63.04677963256836 54.9826774597168 63.81315231323242 54.09471893310547 64.45620727539062 53.08864974975586 L 53.59928512573242 43.27726364135742 C 52.6655387878418 42.44614410400391 52.58624649047852 41.02011871337891 53.42309951782227 40.09276962280273 C 54.25996398925781 39.16542816162109 55.69585800170898 39.08668899536133 56.62959289550781 39.91779708862305 L 68.45067596435547 50.64338302612305 C 71.19903564453125 51.55323028564453 71.92132568359375 51.05892944335938 71.92132568359375 51.05892944335938 C 72.14155578613281 50.3284912109375 72.11952972412109 49.54107666015625 71.85086059570312 48.81933212280273 L 59.14353942871094 36.71538543701172 C 58.24063110351562 35.85806274414062 58.20980453491211 34.43645095825195 59.07307434082031 33.53973007202148 C 59.93191528320312 32.64301681518555 61.36334228515625 32.61241149902344 62.2662467956543 33.46974563598633 L 74.99949645996094 45.5815315246582 C 76.37373352050781 45.93146133422852 77.39993286132812 45.90960311889648 77.80513763427734 45.51591873168945 L 77.80691528320312 45.51742553710938 C 78.37068939208984 44.95751571655273 78.35747528076172 43.3127555847168 78.21652221679688 42.19295883178711 C 76.32227325439453 40.17618560791016 68.23570251464844 31.44106483459473 62.27206039428711 25.39591789245605 C 56.98234176635742 19.97625160217285 54.66119384765625 22.21584892272949 51.14204406738281 25.57526397705078 C 45.86563110351562 30.57944107055664 41.98533630371094 29.2715015411377 39.73025894165039 27.29875755310059 C 36.81007385253906 24.8010368347168 36.9554328918457 18.46283721923828 37.01268768310547 17.22053146362305 C 37.03030014038086 16.82246398925781 37.15361785888672 16.43754386901855 37.37384414672852 16.10071754455566 L 37.37384414672852 16.10510444641113 L 40.27195358276367 11.62589073181152 L 32.09731292724609 11.23221015930176 Z M 56.73400497436523 17.72234344482422 C 59.23567199707031 17.72234344482422 62.11179351806641 18.94270324707031 65.49439239501953 22.30211639404297 C 70.66932678222656 27.49867630004883 77.43453979492188 34.75555801391602 80.42070007324219 37.9793586730957 L 81.63629913330078 36.85955810546875 L 72.61602020263672 14.95733070373535 C 72.39579010009766 14.81735706329346 72.20199584960938 14.64675712585449 72.04344940185547 14.44117069244385 L 56.88803100585938 10.05439758300781 L 46.03111267089844 10.95986366271973 L 41.5606575012207 18.04607772827148 C 41.48139190673828 20.45623779296875 42.00991439819336 23.37821006774902 42.68819427490234 23.95998382568359 C 43.36212539672852 24.54183769226074 44.62620162963867 25.61784934997559 48.00880432128906 22.40278434753418 C 50.05685806274414 20.45623779296875 52.93297958374023 17.72234344482422 56.73400497436523 17.72234344482422 Z M 88.71900939941406 8.194797515869141 L 77.08284759521484 13.97321033477783 L 85.69788360595703 35.02212905883789 L 100.3551559448242 33.23246383666992 L 88.71900939941406 8.194797515869141 Z M 15.49531269073486 5.194064140319824 L 5.440179347991943 31.05019760131836 L 22.62155342102051 32.67301177978516 L 27.66028594970703 10.27695751190186 L 15.49531269073486 5.194064140319824 Z" stroke="none" fill="#fff"/>
  </g>
</svg>
