<svg xmlns="http://www.w3.org/2000/svg" width="70.118" height="87.001" viewBox="0 0 70.118 87.001">
  <g id="peace_of_mind_icon" data-name="peace of mind icon" transform="translate(-283 -2098)">
    <path id="Vector" d="M0,2.219A2.226,2.226,0,0,0,2.219,4.439H7.192A2.219,2.219,0,0,0,7.192,0H2.219A2.219,2.219,0,0,0,0,2.219Z" transform="translate(336.76 2117.541)" fill="#6edcf9"/>
    <path id="Vector-2" data-name="Vector" d="M0,2.219A2.22,2.22,0,0,0,2.219,4.439H7.192A2.219,2.219,0,0,0,7.192,0H2.219A2.217,2.217,0,0,0,0,2.219Z" transform="translate(302.655 2117.541)" fill="#6edcf9"/>
    <path id="Vector-3" data-name="Vector" d="M4.439,7.192V2.219A2.219,2.219,0,1,0,0,2.219V7.192a2.219,2.219,0,1,0,4.439,0Z" transform="translate(322.196 2098)" fill="#6edcf9"/>
    <path id="Vector-4" data-name="Vector" d="M4.2.65.65,4.2A2.222,2.222,0,0,0,3.792,7.343L7.343,3.792A2.222,2.222,0,0,0,4.2.65Z" transform="translate(332.491 2103.724)" fill="#6edcf9"/>
    <path id="Vector-5" data-name="Vector" d="M5.772,7.992A2.22,2.22,0,0,0,7.343,4.2L3.792.65A2.222,2.222,0,0,0,.65,3.792L4.2,7.343a2.206,2.206,0,0,0,1.571.648Z" transform="translate(308.344 2103.689)" fill="#6edcf9"/>
    <g id="Vector-6" data-name="Vector" transform="translate(283 2112.152)" fill="#463ba8">
      <path d="M 17.30686950683594 72.72373199462891 L 17.29383850097656 72.72371673583984 L 4.438779354095459 72.72371673583984 C 3.303569316864014 72.72371673583984 2.191889524459839 72.26309204101562 1.388779401779175 71.45995330810547 C 0.585629403591156 70.65676879882812 0.1249994114041328 69.54508209228516 0.1249994114041328 68.40994262695312 L 0.1249994114041328 29.56000518798828 C 0.1249994114041328 27.18137550354004 2.060149431228638 25.24622535705566 4.438779354095459 25.24622535705566 L 17.29397964477539 25.24683570861816 C 18.42918968200684 25.24683570861816 19.54086875915527 25.70746612548828 20.34399032592773 26.51061630249023 C 21.14712905883789 27.31379508972168 21.60775947570801 28.42547607421875 21.60775947570801 29.56061553955078 L 21.60775947570801 30.6182861328125 L 21.60775947570801 30.77230453491211 L 21.75848007202148 30.7406063079834 C 24.21770858764648 30.22345542907715 26.28238868713379 28.53693580627441 27.28150939941406 26.22917556762695 L 33.75059127807617 12.64260578155518 C 34.38238906860352 11.31223487854004 34.80374908447266 9.902165412902832 35.00300979614258 8.451445579528809 L 35.00416946411133 8.442975044250488 L 35.00416946411133 8.439609527587891 L 35.66880035400391 3.655715465545654 C 35.68518829345703 3.5543053150177 35.70845031738281 3.45235538482666 35.73754119873047 3.355405330657959 C 36.02639770507812 2.413745403289795 36.59757995605469 1.605985403060913 37.38911056518555 1.020185351371765 C 38.180419921875 0.4345453679561615 39.11856842041016 0.1250053495168686 40.10216903686523 0.1250053495168686 C 40.13008117675781 0.1250053495168686 40.15805053710938 0.125255361199379 40.18605041503906 0.1257653534412384 L 40.45769500732422 0.1257847845554352 C 43.36076736450195 0.504320502281189 45.92910385131836 2.1357421875 47.50946807861328 4.604088306427002 L 47.52381896972656 4.630025386810303 C 49.41085815429688 7.688045501708984 49.55022811889648 11.71187496185303 47.93804931640625 16.58974456787109 C 46.21764755249023 21.78451538085938 46.14675903320312 24.62993621826172 46.39023971557617 26.10219573974609 L 46.40752792358398 26.20679473876953 L 46.5135612487793 26.20679473876953 C 52.35878753662109 26.20679473876953 56.3283576965332 26.29623603820801 62.15464019775391 27.53568458557129 L 62.16749954223633 27.53842544555664 L 62.18064880371094 27.53842544555664 L 62.26556396484375 27.53842544555664 C 63.4804801940918 27.77907752990723 64.60635375976562 28.27831077575684 65.61222839355469 29.02238464355469 C 65.80281829833984 29.1703052520752 65.98842620849609 29.32795524597168 66.17736053466797 29.50263595581055 C 68.75422668457031 31.81211471557617 69.55835723876953 35.49354553222656 68.17974853515625 38.66469573974609 L 68.15093231201172 38.73099517822266 L 68.19402313232422 38.78904724121094 C 69.27297210693359 40.24246597290039 69.89405822753906 41.96494674682617 69.99016571044922 43.77028656005859 C 70.04469299316406 46.06552505493164 69.26664733886719 48.30962371826172 67.79924774169922 50.08553695678711 L 67.75348663330078 50.14091491699219 L 67.77829742431641 50.20832443237305 C 68.46691131591797 52.07942581176758 68.55998992919922 54.0869140625 68.04747772216797 56.0137939453125 C 67.53507995605469 57.9402961730957 66.45706176757812 59.63700485229492 64.92996978759766 60.92049407958984 L 64.87683868408203 60.96515655517578 L 64.88665771484375 61.03386688232422 C 65.0709228515625 62.32391357421875 65.07840728759766 64.29378509521484 64.06765747070312 66.35214233398438 C 63.02087783813477 68.48385620117188 61.13801956176758 70.16566467285156 58.47137832641602 71.35083770751953 C 56.43650817871094 72.21615600585938 54.28886795043945 72.65531158447266 52.08993911743164 72.65531158447266 C 52.03255081176758 72.65531158447266 51.97475814819336 72.65500640869141 51.91735076904297 72.65439605712891 L 33.15863037109375 72.65438842773438 C 30.12579917907715 72.65095520019531 27.14893913269043 71.82491302490234 24.55002021789551 70.26558685302734 L 21.7965202331543 68.6148681640625 L 21.62178993225098 68.51011657714844 L 21.60755920410156 68.71334838867188 C 21.45002937316895 70.962158203125 19.56094932556152 72.72373199462891 17.30686950683594 72.72373199462891 Z M 4.313779354095459 29.43500518798828 L 4.313779354095459 29.56000518798828 L 4.313779354095459 68.40994262695312 L 4.313779354095459 68.53494262695312 L 4.438779354095459 68.53494262695312 L 17.2934684753418 68.53494262695312 L 17.4184684753418 68.53494262695312 L 17.4184684753418 68.40994262695312 L 17.4184684753418 29.56000518798828 L 17.4184684753418 29.43500518798828 L 17.2934684753418 29.43500518798828 L 4.438779354095459 29.43500518798828 L 4.313779354095459 29.43500518798828 Z M 39.9958381652832 4.301335334777832 L 39.9710693359375 4.307535171508789 C 39.9036979675293 4.324385166168213 39.84403991699219 4.357335567474365 39.79856109619141 4.40284538269043 L 39.76955795288086 4.431845188140869 L 39.76338958740234 4.472385406494141 L 39.08023071289062 8.956265449523926 C 38.82172775268555 10.83501529693604 38.27935028076172 12.65686511993408 37.46789932250977 14.37301540374756 L 31.04900932312012 27.92896461486816 C 30.27035903930664 29.74404525756836 29.04380989074707 31.34769630432129 27.50005912780762 32.57076644897461 C 25.95516967773438 33.79474639892578 24.11285972595215 34.62140655517578 22.17230987548828 34.96137619018555 L 21.71442031860352 35.02973556518555 L 21.60788917541504 35.045654296875 L 21.60788917541504 35.15336608886719 L 21.60788917541504 63.56152725219727 L 21.60788917541504 63.63231658935547 L 21.66860008239746 63.66872406005859 L 26.67606925964355 66.67182159423828 C 28.62321853637695 67.84150695800781 30.85182952880859 68.46164703369141 33.12091064453125 68.46514892578125 L 51.91666030883789 68.46514892578125 C 51.99794769287109 68.46685791015625 52.08152008056641 68.46771240234375 52.16530990600586 68.46771240234375 C 53.77946853637695 68.46771240234375 55.35475921630859 68.15208435058594 56.84741973876953 67.52958679199219 C 61.82259750366211 65.34474182128906 60.85540008544922 61.61216354370117 60.61100769042969 60.88608551025391 C 60.3184700012207 60.01187515258789 60.61454010009766 59.05487442016602 61.34780883789062 58.50491714477539 L 61.39780807495117 58.46741485595703 L 61.39780807495117 58.46449279785156 C 65.80034637451172 55.18987274169922 63.7687873840332 51.31717681884766 63.52165985107422 50.88486480712891 C 63.0429801940918 50.08374786376953 63.15628051757812 49.05232620239258 63.79492568969727 48.37166595458984 C 65.03537750244141 47.24535751342773 65.77684783935547 45.63973999023438 65.82962036132812 43.96551513671875 L 65.82984924316406 43.95807647705078 L 65.82920074462891 43.95067596435547 C 65.71949005126953 42.69781494140625 65.17357635498047 41.51651382446289 64.29205322265625 40.62435531616211 L 64.289306640625 40.62158584594727 L 64.28639984130859 40.61898422241211 C 63.5333251953125 39.94638442993164 63.3681526184082 38.84907913208008 63.8814582824707 37.98609161376953 L 63.92111968994141 37.92736434936523 C 64.24034881591797 37.40998458862305 65.71380615234375 34.72171401977539 63.36444091796875 32.60191345214844 L 63.07682037353516 32.35980606079102 L 63.07308959960938 32.35666656494141 L 63.06912994384766 32.35382461547852 C 62.57048797607422 31.99664497375488 61.984619140625 31.74942588806152 61.37487030029297 31.63888549804688 L 61.35256958007812 31.88688468933105 L 61.35604095458984 31.63688468933105 L 61.27891540527344 31.63688468933105 C 55.69865036010742 30.4598503112793 52.08187866210938 30.40237617492676 46.17403793334961 30.40237617492676 L 46.14400100708008 30.40248489379883 C 45.26585006713867 30.40248489379883 44.40433120727539 30.10080528259277 43.7181510925293 29.55302619934082 C 43.03178024291992 29.00508499145508 42.54698944091797 28.2316951751709 42.35308074951172 27.37531471252441 L 42.35232162475586 27.37540054321289 C 41.70062255859375 24.49130630493164 42.23766708374023 20.41991996765137 43.94845962524414 15.27380561828613 C 45.13311004638672 11.68477535247803 45.12884902954102 8.765805244445801 43.93622970581055 6.832205295562744 C 43.04385757446289 5.479495525360107 41.61758804321289 4.559665203094482 40.02106094360352 4.305355548858643 L 39.9958381652832 4.301335334777832 Z" stroke="none"/>
      <path d="M 40.10216903686523 0.2500076293945312 C 39.14554977416992 0.2500076293945312 38.23310089111328 0.5510787963867188 37.46347808837891 1.120658874511719 C 36.69358062744141 1.690444946289062 36.13800811767578 2.47613525390625 35.85726928710938 3.391304016113281 C 35.82998275756836 3.482261657714844 35.8080940246582 3.577972412109375 35.79220581054688 3.675827026367188 L 35.12683868408203 8.468452453613281 C 34.92583847045898 9.931884765625 34.50080871582031 11.35427474975586 33.86344909667969 12.69633483886719 L 27.39437484741211 26.28306579589844 C 26.37847518920898 28.62579727172852 24.28154373168945 30.33776473999023 21.78421020507812 30.86293411254883 L 21.48275756835938 30.92632675170898 L 21.48275756835938 29.56061553955078 C 21.48275756835938 28.4583740234375 21.03546905517578 27.37891387939453 20.25558853149414 26.59899520874023 C 19.47575759887695 25.81911468505859 18.39628982543945 25.37183380126953 17.29396820068359 25.37183380126953 L 4.438766479492188 25.37122344970703 C 2.129066467285156 25.37122344970703 0.25 27.25030517578125 0.25 29.56000518798828 L 0.25 68.40994262695312 C 0.25 69.51217651367188 0.6972808837890625 70.59164428710938 1.477157592773438 71.37156677246094 C 2.257011413574219 72.15143585205078 3.336471557617188 72.59871673583984 4.438766479492188 72.59871673583984 L 17.30686950683594 72.59873199462891 C 19.49559020996094 72.59873199462891 21.32989883422852 70.88822174072266 21.48286056518555 68.70460510253906 L 21.51132965087891 68.29815673828125 L 24.61433029174805 70.15840148925781 C 27.19387817382812 71.70610809326172 30.1485481262207 72.52597808837891 33.15863037109375 72.52937316894531 L 51.91867828369141 72.52938842773438 C 54.15888214111328 72.55331420898438 56.35040283203125 72.11695098876953 58.42060852050781 71.23661804199219 C 61.05974960327148 70.06365203857422 62.92193984985352 68.40174865722656 63.95544815063477 66.29705810546875 C 64.73310852050781 64.71338653564453 65.01986694335938 62.85049438476562 64.76290893554688 61.05153656005859 L 64.74327850341797 60.91411590576172 L 64.84954833984375 60.82480621337891 C 66.35685729980469 59.55793762207031 67.42090606689453 57.88320541381836 67.92668151855469 55.98166656494141 C 68.43254089355469 54.07978820800781 68.34066772460938 52.09832763671875 67.66098785400391 50.25149536132812 L 67.61136627197266 50.11666488647461 L 67.70288848876953 50.00591278076172 C 69.15033721923828 48.254150390625 69.91816711425781 46.04087829589844 69.86515045166016 43.77335357666016 C 69.76972961425781 41.99392700195312 69.15719604492188 40.29622268676758 68.09365844726562 38.86355590820312 L 68.00747680664062 38.74745559692383 L 68.06511688232422 38.61486434936523 C 69.42220306396484 35.49318695068359 68.63062286376953 31.86919403076172 66.09250640869141 29.59442520141602 C 65.90709686279297 29.42300033569336 65.72495269775391 29.26822280883789 65.53578948974609 29.12133407592773 C 64.54876708984375 28.39167404174805 63.44443893432617 27.90120315551758 62.25325012207031 27.66342544555664 L 62.15435028076172 27.66342544555664 L 62.12863159179688 27.65795516967773 C 56.3143310546875 26.42105484008789 52.35060882568359 26.33179473876953 46.51355743408203 26.33179473876953 L 46.30150985717773 26.33179473876953 L 46.26690673828125 26.12258529663086 C 46.02114105224609 24.63645553588867 46.09098052978516 21.76940536499023 47.81937026977539 16.5505256652832 C 49.41941833496094 11.70934677124023 49.28418731689453 7.720794677734375 47.41744995117188 4.6956787109375 L 47.39472198486328 4.656730651855469 C 45.83497619628906 2.230049133300781 43.30681610107422 0.6256942749023438 40.44949340820312 0.2507858276367188 L 40.18380737304688 0.2507476806640625 C 40.15655899047852 0.2502517700195312 40.12934112548828 0.2500076293945312 40.10216903686523 0.2500076293945312 M 42.47422790527344 27.3477897644043 L 42.47499847412109 27.34770584106445 C 42.66265106201172 28.1765251159668 43.13183975219727 28.92503356933594 43.79612731933594 29.45534515380859 C 44.46025085449219 29.98550415039062 45.2940673828125 30.27748489379883 46.14399719238281 30.27748489379883 L 46.17404174804688 30.27737426757812 C 52.08584594726562 30.27737426757812 55.70649719238281 30.33479309082031 61.29197692871094 31.51188659667969 L 61.35604095458984 31.51188659667969 L 61.35437393188477 31.75193405151367 L 61.39715957641602 31.51589584350586 C 62.02500915527344 31.62971496582031 62.62833786010742 31.88432693481445 63.14191818237305 32.25220489501953 L 63.15729904174805 32.26415634155273 L 63.44818115234375 32.50911712646484 C 65.87116241455078 34.6953239440918 64.35585784912109 37.4608268737793 64.02749633789062 37.99300384521484 L 63.97227478027344 38.07844924926758 C 63.50990295410156 38.88551330566406 63.6697998046875 39.90067291259766 64.36965942382812 40.5257568359375 L 64.38095855712891 40.53649520874023 C 65.28292846679688 41.44932556152344 65.84147644042969 42.65796661376953 65.95372009277344 43.93976593017578 L 65.95500946044922 43.95458602905273 L 65.95455169677734 43.96944427490234 C 65.90078735351562 45.67557144165039 65.14572906494141 47.31203079223633 63.88270568847656 48.46080780029297 C 63.28505325317383 49.10100555419922 63.17960739135742 50.06870269775391 63.62705993652344 50.81747436523438 L 63.63015747070312 50.82280731201172 C 63.74330139160156 51.02072525024414 64.3084716796875 52.07993316650391 64.32361602783203 53.49948501586914 C 64.3377685546875 54.82548904418945 63.8599853515625 56.76579666137695 61.52280807495117 58.52705383300781 L 61.52280807495117 58.5299072265625 L 61.42280960083008 58.60490417480469 C 60.73270034790039 59.12249755859375 60.45412826538086 60.02337646484375 60.7294807434082 60.84621429443359 C 60.97995758056641 61.59037399291992 61.97251129150391 65.41543579101562 56.89553833007812 67.64495849609375 C 55.31001281738281 68.30616760253906 53.63003921508789 68.62522888183594 51.9139404296875 68.59013366699219 L 33.12070846557617 68.59013366699219 C 30.82901763916016 68.58659362792969 28.57822036743164 67.96029663085938 26.61177825927734 66.77902221679688 L 21.48289108276367 63.70310592651367 L 21.48289108276367 34.93793487548828 L 22.15395355224609 34.83768081665039 C 24.07292175292969 34.50093841552734 25.89463806152344 33.68321990966797 27.42242813110352 32.47278594970703 C 28.94997024536133 31.26255416870117 30.16362762451172 29.67574691772461 30.93222045898438 27.88390350341797 L 30.93602752685547 27.87546539306641 L 37.35488128662109 14.31956481933594 C 38.1609001159668 12.61494445800781 38.69963836669922 10.80534362792969 38.95664978027344 8.937423706054688 L 39.65216827392578 4.372474670410156 L 39.71015167236328 4.314468383789062 C 39.77169036865234 4.252914428710938 39.8514404296875 4.208587646484375 39.94078826904297 4.186256408691406 L 39.99031829833984 4.173873901367188 L 40.04072952270508 4.181907653808594 C 41.67179107666016 4.441726684570312 43.12892913818359 5.381454467773438 44.03852081298828 6.760147094726562 L 44.04261779785156 6.766578674316406 C 45.25522994995117 8.732574462890625 45.26374053955078 11.68779373168945 44.06707000732422 15.3132438659668 C 42.36357116699219 20.43742752075195 41.82763671875 24.48624038696289 42.47422790527344 27.3477897644043 M 17.5434684753418 68.65994262695312 L 4.188766479492188 68.65994262695312 L 4.188766479492188 29.31000518798828 L 17.5434684753418 29.31000518798828 L 17.5434684753418 68.65994262695312 M 40.10216522216797 0 C 40.13084030151367 0 40.15956497192383 0.0002593994140625 40.18833160400391 0.00078582763671875 L 40.46575927734375 0.00078582763671875 C 43.40989685058594 0.3822555541992188 46.03499984741211 2.053718566894531 47.63019943237305 4.5609130859375 L 47.63019943237305 4.564384460449219 C 49.54097747802734 7.660873413085938 49.67964935302734 11.71862411499023 48.05673980712891 16.62897491455078 C 46.30201721191406 21.92736434936523 46.29161834716797 24.73977661132812 46.51355743408203 26.08179473876953 C 52.33545684814453 26.08179473876953 56.29581069946289 26.16151428222656 62.18064880371094 27.41342544555664 L 62.27775955200195 27.41342544555664 C 63.51227951049805 27.65613555908203 64.67398834228516 28.17285537719727 65.68656921386719 28.92189407348633 C 65.88768768310547 29.07794570922852 66.07843017578125 29.24093627929688 66.26222229003906 29.41085433959961 C 68.87349700927734 31.75115585327148 69.69188690185547 35.49988555908203 68.29438781738281 38.71453475952148 C 69.38329315185547 40.18136596679688 70.01789093017578 41.9395751953125 70.114990234375 43.76364517211914 C 70.17047882080078 46.09746551513672 69.37983703613281 48.36887359619141 67.89560699462891 50.16515350341797 C 69.31743621826172 54.0285758972168 68.16263580322266 58.36677551269531 65.01039886474609 61.01618576049805 C 65.45427703857422 64.123779296875 64.51448822021484 68.80179595947266 58.52214050292969 71.46506500244141 C 56.43450164794922 72.35284423828125 54.18398284912109 72.80365753173828 51.91600799560547 72.77937316894531 L 33.15863037109375 72.77937316894531 C 30.10350799560547 72.77592468261719 27.1038703918457 71.94364166259766 24.48571014404297 70.37277221679688 L 21.73225021362305 68.72207641601562 C 21.56924819946289 71.04897308349609 19.62852096557617 72.85565185546875 17.2934684753418 72.84871673583984 L 4.438766479492188 72.84871673583984 C 3.26312255859375 72.84871673583984 2.132621765136719 72.38060760498047 1.300376892089844 71.54833221435547 C 0.4681472778320312 70.716064453125 0 69.58550262451172 0 68.40994262695312 L 0 29.56000518798828 C 0 27.11174392700195 1.987060546875 25.12122344970703 4.438766479492188 25.12122344970703 L 17.29397964477539 25.12183380126953 C 18.46963882446289 25.12183380126953 19.60013961791992 25.58994674682617 20.43236923217773 26.42222595214844 C 21.26461029052734 27.25449371337891 21.73275756835938 28.38504409790039 21.73275756835938 29.56061553955078 L 21.73275756835938 30.6182861328125 C 24.15678024291992 30.10853576660156 26.18191909790039 28.45438385009766 27.16679000854492 26.17951583862305 L 33.63772964477539 12.5888671875 C 34.26190948486328 11.27454376220703 34.68149948120117 9.873577117919922 34.87916946411133 8.434432983398438 L 34.87916946411133 8.430961608886719 L 35.54499053955078 3.638511657714844 C 35.56232833862305 3.531013488769531 35.58660125732422 3.423515319824219 35.6178092956543 3.319473266601562 C 36.22317123413086 1.346046447753906 38.0428466796875 0 40.10216522216797 0 Z M 42.23117065429688 27.4063835144043 C 41.57573699951172 24.51052474975586 42.10634994506836 20.41868591308594 43.82984161376953 15.234375 C 45.00193786621094 11.68335723876953 45.00193786621094 8.798149108886719 43.82984161376953 6.897811889648438 C 42.95592880249023 5.573204040527344 41.56880950927734 4.678474426269531 40.00139999389648 4.428794860839844 C 39.95977783203125 4.439193725585938 39.91815948486328 4.460006713867188 39.88695907592773 4.491218566894531 L 39.20380020141602 8.975086212158203 C 38.94377899169922 10.86503601074219 38.39582824707031 12.70294570922852 37.58089065551758 14.42643356323242 L 31.16197967529297 27.98245620727539 C 29.56295776367188 31.7103157043457 26.19223785400391 34.38400650024414 22.19387817382812 35.08449554443359 L 21.73289108276367 35.15336608886719 L 21.73289108276367 63.5615234375 L 26.74036026000977 66.56462860107422 C 28.66847991943359 67.72287750244141 30.87401962280273 68.33666229248047 33.12109756469727 68.34013366699219 L 51.91666030883789 68.34013366699219 C 53.59159851074219 68.374755859375 55.25267028808594 68.05921173095703 56.79930877685547 67.41421508789062 C 61.67157745361328 65.27454376220703 60.73181915283203 61.63685607910156 60.49253845214844 60.92596435546875 C 60.18387985229492 60.00358581542969 60.49601745605469 58.98750305175781 61.27280807495117 58.4049072265625 L 61.27280807495117 58.40144348144531 C 65.79139709472656 55.08283615112305 63.50957107543945 51.11564636230469 63.41246032714844 50.94571685791016 C 62.9026985168457 50.09267425537109 63.02407073974609 49.00722503662109 63.70722961425781 48.28245544433594 C 64.93135833740234 47.17276763916016 65.65265655517578 45.61226654052734 65.70466613769531 43.96157455444336 C 65.59716796875 42.73390579223633 65.06661987304688 41.58610534667969 64.20313262939453 40.71221542358398 C 63.39167022705078 39.98745346069336 63.2252197265625 38.78072357177734 63.8112678527832 37.86172485351562 L 63.81473922729492 37.86172485351562 C 64.11644744873047 37.37274551391602 65.55211639404297 34.74418640136719 63.28070068359375 32.69472503662109 L 62.996337890625 32.4554443359375 C 62.50736999511719 32.10519409179688 61.94556045532227 31.869384765625 61.35256958007812 31.76188659667969 L 61.35604095458984 31.76188659667969 L 61.26588821411133 31.76188659667969 C 55.6650390625 30.57939529418945 52.04156875610352 30.52737426757812 46.17404174804688 30.52737426757812 C 44.28755950927734 30.54144668579102 42.64730072021484 29.24083709716797 42.23117065429688 27.40291595458984 L 42.23117065429688 27.4063835144043 Z M 17.2934684753418 68.40994262695312 L 17.2934684753418 29.56000518798828 L 4.438766479492188 29.56000518798828 L 4.438766479492188 68.40994262695312 L 17.2934684753418 68.40994262695312 Z" stroke="none" fill="#fff"/>
    </g>
    <path id="Vector-7" data-name="Vector" d="M5.413,2.707A2.707,2.707,0,1,1,0,2.707,2.707,2.707,0,1,1,5.413,2.707Z" transform="translate(291.16 2170.947)" fill="#6edcf9"/>
  </g>
</svg>
