<?xml version="1.0" encoding="utf-8"?>
<!-- Generator: Adobe Illustrator 25.2.1, SVG Export Plug-In . SVG Version: 6.00 Build 0)  -->
<svg version="1.1" id="Layer_1" xmlns="http://www.w3.org/2000/svg" xmlns:xlink="http://www.w3.org/1999/xlink" x="0px" y="0px"
	 viewBox="0 0 612 792" style="enable-background:new 0 0 612 792;" xml:space="preserve">
<style type="text/css">
	.st0{fill:#035A75;}
</style>
<path id="Path_310" class="st0" d="M314.18,403.6h-22.99l-0.84,2.75h6.13l1.17,3.79h10.07l1.17-3.79h6.13L314.18,403.6z
	 M294.94,388.16c-1.76,2.43-1.22,5.83,1.21,7.59c0,0,0,0,0,0l5.5,4c0.61,0.44,0.74,1.29,0.3,1.9l0.83,0.6l2.91-4.02
	c0.67-0.92,1.04-2.04,1.04-3.18c0-0.29-0.02-0.58-0.07-0.87c-0.23-1.42-1.01-2.7-2.18-3.54l-5.5-4c-0.29-0.21-0.49-0.53-0.54-0.89
	c-0.01-0.07-0.02-0.14-0.02-0.22c0-0.29,0.09-0.56,0.26-0.79l-0.83-0.6L294.94,388.16z M298.25,372.09c-0.98,1.34-1.5,2.96-1.5,4.61
	c0,0.42,0.03,0.84,0.1,1.26c0.33,2.07,1.46,3.91,3.16,5.14l6.92,5.01c0.91,0.66,1.52,1.65,1.69,2.76c0.04,0.22,0.05,0.45,0.05,0.67
	c0,0.89-0.29,1.76-0.81,2.47l0.67,0.49l5.45-7.53c2.56-3.52,1.77-8.45-1.75-11.01c0,0,0,0,0,0l-8.35-6.07
	c-1.08-0.79-1.32-2.31-0.54-3.4l-0.67-0.48L298.25,372.09z M284.13,412.44h6.3c1.29-0.08,2.57,0.35,3.55,1.2
	c0.62,0.61,0.95,1.44,0.93,2.31v0.03c0.03,1.24-0.67,2.39-1.79,2.93c1.57,0.6,2.54,1.51,2.54,3.34v0.04c0,2.48-2.01,3.72-5.08,3.72
	h-6.45V412.44z M289.79,417.92c1.32,0,2.15-0.43,2.15-1.43v-0.04c0-0.89-0.7-1.4-1.95-1.4h-2.95v2.87L289.79,417.92z M290.58,423.39
	c1.32,0,2.12-0.46,2.12-1.46v-0.04c0-0.91-0.68-1.46-2.21-1.46h-3.45v2.98L290.58,423.39z M296.96,412.44h6.3
	c1.29-0.08,2.57,0.35,3.55,1.2c0.62,0.61,0.95,1.44,0.93,2.31v0.03c0.03,1.24-0.67,2.39-1.79,2.93c1.57,0.6,2.54,1.51,2.54,3.34
	v0.04c0,2.48-2.01,3.72-5.08,3.72h-6.44L296.96,412.44z M302.62,417.92c1.32,0,2.15-0.43,2.15-1.43v-0.04c0-0.89-0.7-1.4-1.95-1.4
	h-2.95v2.87L302.62,417.92z M303.41,423.39c1.32,0,2.12-0.46,2.12-1.46v-0.04c0-0.91-0.68-1.46-2.21-1.46h-3.45v2.98L303.41,423.39z
	 M309.79,412.44h6.3c1.29-0.08,2.57,0.35,3.55,1.2c0.62,0.61,0.95,1.44,0.93,2.31v0.03c0.03,1.24-0.67,2.39-1.79,2.93
	c1.57,0.6,2.54,1.51,2.54,3.34v0.04c0,2.48-2.02,3.72-5.08,3.72h-6.45V412.44z M315.45,417.92c1.32,0,2.15-0.43,2.15-1.43v-0.04
	c0-0.89-0.7-1.4-1.95-1.4h-2.95v2.87L315.45,417.92z M316.24,423.39c1.32,0,2.12-0.46,2.12-1.46v-0.04c0-0.91-0.68-1.46-2.21-1.46
	h-3.45v2.98L316.24,423.39z M321.95,423.17v-0.02c0-1.53,1.24-2.77,2.76-2.77c1.53,0,2.77,1.24,2.77,2.76l0,0v0.02
	c0,1.53-1.24,2.77-2.76,2.77C323.19,425.93,321.95,424.7,321.95,423.17z M327.16,423.15v-0.02c0-1.35-1.1-2.44-2.45-2.44
	c-1.35,0-2.44,1.1-2.44,2.45l0,0v0.02c0,1.35,1.1,2.44,2.45,2.44C326.07,425.6,327.16,424.51,327.16,423.15L327.16,423.15z
	 M323.58,421.6h1.3c0.33-0.02,0.66,0.1,0.91,0.33c0.16,0.17,0.25,0.4,0.24,0.64v0.02c0.02,0.41-0.24,0.78-0.63,0.91l0.72,1.05h-0.76
	l-0.63-0.95h-0.51v0.95h-0.65L323.58,421.6z M324.88,423.04c0.33,0,0.5-0.18,0.5-0.42v-0.02c0-0.28-0.2-0.43-0.52-0.43h-0.64v0.86
	H324.88z"/>
</svg>
