<?xml version="1.0" encoding="utf-8"?>
<!-- Generator: Adobe Illustrator 25.2.1, SVG Export Plug-In . SVG Version: 6.00 Build 0)  -->
<svg version="1.1" id="Layer_1" xmlns="http://www.w3.org/2000/svg" xmlns:xlink="http://www.w3.org/1999/xlink" x="0px" y="0px"
	 viewBox="0 0 792 612" style="enable-background:new 0 0 792 612;" xml:space="preserve">
<style type="text/css">
	.st0{fill:none;stroke:#49449B;stroke-width:3.897;stroke-linecap:round;stroke-miterlimit:10;}
	.st1{fill:none;stroke:#78D1F0;stroke-width:3.897;stroke-miterlimit:10;}
</style>
<g id="Shield_Cross" transform="translate(1.949 2.1)">
	<path id="Path_3222" class="st0" d="M393.9,338.73c9.7-3.06,29.1-15.31,29.1-26.03v-30.26c-0.01-2.47-1.92-4.51-4.39-4.67
		c-8.15-0.38-15.98-3.27-22.43-8.26c-1.34-1.03-3.21-1.03-4.55,0c-6.45,4.99-14.28,7.88-22.43,8.26c-2.46,0.16-4.38,2.2-4.39,4.67
		v30.26C364.81,323.42,384.2,335.67,393.9,338.73z"/>
	<path id="Path_3223" class="st1" d="M407.35,298.92h-8.85v-8.85c0-1.03-0.84-1.87-1.87-1.87h-5.44c-1.03,0-1.87,0.84-1.87,1.87
		v8.85h-8.85c-1.03,0-1.87,0.84-1.87,1.87l0,0v5.44c0,1.03,0.84,1.87,1.87,1.87h8.85v8.85c0,1.03,0.84,1.87,1.87,1.87h5.44
		c1.03,0,1.87-0.84,1.87-1.87v-8.85h8.85c1.03,0,1.87-0.84,1.87-1.87v-5.44C409.21,299.76,408.38,298.92,407.35,298.92z"/>
</g>
</svg>
