<svg xmlns="http://www.w3.org/2000/svg" xmlns:xlink="http://www.w3.org/1999/xlink" width="174" height="174" viewBox="0 0 174 174">
  <defs>
    <filter id="Rectangle_2402" x="-9" y="-6" width="192" height="192" filterUnits="userSpaceOnUse">
      <feOffset dy="3" input="SourceAlpha"/>
      <feGaussianBlur stdDeviation="3" result="blur"/>
      <feFlood flood-opacity="0.263"/>
      <feComposite operator="in" in2="blur"/>
      <feComposite in="SourceGraphic"/>
    </filter>
    <clipPath id="clip-path">
      <g transform="matrix(1, 0, 0, 1, 0, 0)" filter="url(#Rectangle_2402)">
        <rect id="Rectangle_2402-2" data-name="Rectangle 2402" width="174" height="174" fill="none"/>
      </g>
    </clipPath>
  </defs>
  <g id="Group_3080" data-name="Group 3080" transform="translate(0 0)">
    <g id="Mask_Group_2681" data-name="Mask Group 2681" transform="translate(0 0)" clip-path="url(#clip-path)">
      <path id="Path_4536" data-name="Path 4536" d="M91.025,3.932l.868-1.561a4.606,4.606,0,0,1,8.441.918L100.847,5a4.606,4.606,0,0,0,7.865,1.733L109.9,5.4a4.607,4.607,0,0,1,8.044,2.715l.134,1.782a4.608,4.608,0,0,0,7.308,3.386l1.444-1.053a4.61,4.61,0,0,1,7.275,4.384l-.253,1.769a4.611,4.611,0,0,0,6.41,4.881l1.636-.716a4.611,4.611,0,0,1,6.163,5.847l-.626,1.672a4.615,4.615,0,0,0,5.214,6.147l1.751-.348a4.614,4.614,0,0,1,4.765,7.037l-.972,1.5a4.617,4.617,0,0,0,3.772,7.126l1.785.036a4.616,4.616,0,0,1,3.142,7.9l-1.27,1.255a4.618,4.618,0,0,0,2.157,7.77l1.732.42a4.618,4.618,0,0,1,1.374,8.392l-1.508.952a4.617,4.617,0,0,0,.434,8.052l1.6.784a4.616,4.616,0,0,1-.46,8.488l-1.679.607a4.618,4.618,0,0,0-1.3,7.957l1.4,1.111a4.617,4.617,0,0,1-2.272,8.192l-1.77.231a4.616,4.616,0,0,0-2.98,7.491l1.127,1.385a4.616,4.616,0,0,1-3.978,7.513l-1.778-.157a4.612,4.612,0,0,0-4.516,6.674l.8,1.595a4.613,4.613,0,0,1-5.5,6.482l-1.7-.537a4.612,4.612,0,0,0-5.846,5.546l.442,1.731a4.61,4.61,0,0,1-6.759,5.146l-1.547-.89a4.61,4.61,0,0,0-6.9,4.159l.06,1.786a4.608,4.608,0,0,1-7.7,3.57l-1.321-1.2a4.607,4.607,0,0,0-7.631,2.574l-.326,1.757a4.607,4.607,0,0,1-8.292,1.829l-1.03-1.459a4.606,4.606,0,0,0-8.007.871l-.694,1.646a4.606,4.606,0,0,1-8.49,0l-.694-1.646a4.606,4.606,0,0,0-8.007-.871l-1.032,1.459a4.607,4.607,0,0,1-8.292-1.829l-.325-1.757a4.606,4.606,0,0,0-7.629-2.574l-1.323,1.2a4.609,4.609,0,0,1-7.707-3.57l.06-1.786a4.609,4.609,0,0,0-6.9-4.159l-1.547.89a4.612,4.612,0,0,1-6.761-5.146l.443-1.731a4.614,4.614,0,0,0-5.848-5.546l-1.7.537a4.613,4.613,0,0,1-5.5-6.482l.8-1.595A4.613,4.613,0,0,0,16.28,129.9l-1.776.157a4.617,4.617,0,0,1-3.978-7.513l1.127-1.385a4.617,4.617,0,0,0-2.98-7.491L6.9,113.44a4.616,4.616,0,0,1-2.27-8.192l1.4-1.111a4.617,4.617,0,0,0-1.3-7.957l-1.679-.607a4.617,4.617,0,0,1-.459-8.488L4.193,86.3a4.619,4.619,0,0,0,.434-8.052L3.12,77.3A4.618,4.618,0,0,1,4.493,68.9l1.732-.42a4.617,4.617,0,0,0,2.153-7.77L7.109,59.46a4.617,4.617,0,0,1,3.144-7.9l1.783-.036A4.616,4.616,0,0,0,15.808,44.4l-.97-1.5A4.614,4.614,0,0,1,19.6,35.864l1.747.348a4.613,4.613,0,0,0,5.214-6.147l-.626-1.672A4.612,4.612,0,0,1,32.1,22.545l1.634.716a4.61,4.61,0,0,0,6.41-4.881L39.9,16.612a4.609,4.609,0,0,1,7.275-4.384l1.442,1.053a4.609,4.609,0,0,0,7.31-3.386l.132-1.782A4.608,4.608,0,0,1,64.1,5.4l1.183,1.338A4.606,4.606,0,0,0,73.151,5l.511-1.712A4.606,4.606,0,0,1,82.1,2.371l.87,1.561a4.6,4.6,0,0,0,8.052,0" transform="translate(0 0.001)" fill="#fbb230"/>
      <path id="Path_4537" data-name="Path 4537" d="M22.024,35.847a8.133,8.133,0,0,1-.81-11.448,7.858,7.858,0,0,1,6.142-2.8l-.108,2.239a5.658,5.658,0,0,0-4.378,1.969,5.845,5.845,0,0,0,.717,8.235,5.777,5.777,0,0,0,8.2-.491,5.677,5.677,0,0,0,1.33-4.615l2.2-.423A7.884,7.884,0,0,1,33.414,35a8.062,8.062,0,0,1-11.39.848" transform="translate(17.062 19.216)" fill="#463ba8"/>
      <path id="Path_4538" data-name="Path 4538" d="M35.02,29.024l5.433-3.418,1.132,1.8L34.131,32.1l-8.3-13.22,2.021-1.272Z" transform="translate(22.914 15.664)" fill="#463ba8"/>
      <path id="Path_4539" data-name="Path 4539" d="M39.49,27.785,46.563,25.6l.63,2.037-9.328,2.88-4.6-14.926,9.129-2.819.628,2.037-6.874,2.122,1.4,4.528,5.991-1.848.634,2.056-5.991,1.85Z" transform="translate(29.504 11.363)" fill="#463ba8"/>
      <path id="Path_4540" data-name="Path 4540" d="M53.54,27.621l-1.534-3.927-6.648.083-1.425,3.965-2.5.032,5.827-15.7,2.548-.032,6.237,15.542ZM46.1,21.73l5.118-.066-2.642-6.769Z" transform="translate(36.751 10.717)" fill="#463ba8"/>
      <path id="Path_4541" data-name="Path 4541" d="M58.432,30.024l-2.3-6.748L54.4,22.768l-1.63,5.593-2.287-.669,4.376-15L60.7,14.4a4.618,4.618,0,0,1,3.325,6.13,4.62,4.62,0,0,1-5.244,3.517l2.385,6.776ZM56.547,15.409l-1.576,5.4,3,.881c2.108.618,3.3-.238,3.761-1.827a2.56,2.56,0,0,0-1.655-3.417Z" transform="translate(44.778 11.29)" fill="#463ba8"/>
      <path id="Path_4542" data-name="Path 4542" d="M72.808,39.363l-1.895-1.41,5.629-9.94L67,32.893l-1.634-1.215L67.26,21.1l-7.893,8.25-1.895-1.408L68.349,16.57l1.706,1.272-2.306,12.3L78.858,24.4l1.708,1.272Z" transform="translate(50.98 14.742)" fill="#463ba8"/>
      <path id="Path_4543" data-name="Path 4543" d="M72.479,41.131l2.529-3.369-3.57-5.616-4.116.865L65.976,30.9l16.4-3.277,1.368,2.149L73.824,43.244ZM73.564,31.7l2.749,4.325,4.361-5.8Z" transform="translate(58.523 24.575)" fill="#463ba8"/>
      <path id="Path_4544" data-name="Path 4544" d="M87.69,44.261l-2.019.663L84.191,40.41l-12.8,4.2-.742-2.269,12.8-4.2L81.97,33.628l2.023-.665Z" transform="translate(62.671 29.326)" fill="#463ba8"/>
      <path id="Path_4545" data-name="Path 4545" d="M79.34,40.546a8.124,8.124,0,0,1,8.726,7.445,7.886,7.886,0,0,1-2.31,6.351l-1.515-1.648A5.679,5.679,0,0,0,85.9,48.188a5.839,5.839,0,0,0-6.371-5.261,5.78,5.78,0,0,0-5.389,6.2A5.673,5.673,0,0,0,76.5,53.313L75.262,55.18a7.863,7.863,0,0,1-3.285-5.9,8.066,8.066,0,0,1,7.363-8.732" transform="translate(63.822 36.05)" fill="#463ba8"/>
      <path id="Path_4546" data-name="Path 4546" d="M86.115,63.477,85.5,65.782,70.434,61.716l.619-2.3,6.471,1.744,1.917-7.115L72.97,52.3l.621-2.305,15.064,4.067-.621,2.3-6.559-1.769-1.917,7.115Z" transform="translate(62.477 44.475)" fill="#463ba8"/>
      <path id="Path_4547" data-name="Path 4547" d="M18.585,43a7.992,7.992,0,0,1,8.352,7.659,7.766,7.766,0,0,1-1.98,5.465L23.41,54.533a5.571,5.571,0,0,0,1.378-3.811,5.781,5.781,0,0,0-6.129-5.389,5.735,5.735,0,0,0-5.712,5.782c.081,2.63,1.895,4.8,4.184,4.728l-.142-4.49,1.991-.062.219,7.052c-5.544.172-8.265-2.715-8.4-7.137A7.946,7.946,0,0,1,18.585,43" transform="translate(9.572 38.25)" fill="#463ba8"/>
      <path id="Path_4548" data-name="Path 4548" d="M16.377,55.568l9.648-3.42.776,2.2-9.624,3.413a3.435,3.435,0,1,0,2.289,6.478l9.626-3.413.777,2.2-9.645,3.418a5.479,5.479,0,0,1-7.246-3.566,5.474,5.474,0,0,1,3.4-7.315" transform="translate(11.176 46.395)" fill="#463ba8"/>
      <path id="Path_4549" data-name="Path 4549" d="M21.771,74.625l2.415-3.437-3.7-5.352-4.07,1.053-1.389-2.016,16.195-4.031,1.419,2.048L23.166,76.641Zm.815-9.337,2.849,4.121L29.6,63.482Z" transform="translate(13.33 54.129)" fill="#463ba8"/>
      <path id="Path_4550" data-name="Path 4550" d="M27.442,81.98l.721-7.039L26.819,73.8l-3.774,4.437L21.273,76.72,31.382,64.826l4.536,3.864c2.6,2.222,2.053,5,.455,6.878a4.593,4.593,0,0,1-6.159,1.122l-.649,7.1ZM31.78,67.963l-3.64,4.28,2.325,1.982c1.64,1.4,3.061,1.09,4.131-.168a2.535,2.535,0,0,0-.077-3.759Z" transform="translate(18.87 57.674)" fill="#463ba8"/>
      <path id="Path_4551" data-name="Path 4551" d="M38.1,86.667l.408-4.182-5.852-2.829-3.019,2.925-2.2-1.068,12.1-11.5L41.782,71.1,40.3,87.733Zm-3.885-8.522,4.5,2.177.711-7.211Z" transform="translate(24.338 62.292)" fill="#463ba8"/>
      <path id="Path_4552" data-name="Path 4552" d="M48.563,73.6l2.3.412L48.118,89.4l-2.164-.387L41.24,76.6l-2,11.211-2.3-.412,2.746-15.388,2.23.4L46.58,84.721Z" transform="translate(32.77 64.064)" fill="#463ba8"/>
      <path id="Path_4553" data-name="Path 4553" d="M57.129,72.55l.2,2.12-4.621.44,1.276,13.435-2.325.221L50.389,75.333l-4.621.438-.2-2.122Z" transform="translate(40.417 64.545)" fill="#463ba8"/>
      <path id="Path_4554" data-name="Path 4554" d="M59.637,85.588l6.829-2.421.711,2-9.007,3.2L52.962,73.64l8.818-3.126.71,2.009-6.642,2.355,1.581,4.465,5.786-2.048.719,2.031-5.786,2.05Z" transform="translate(46.98 62.735)" fill="#463ba8"/>
      <path id="Path_4555" data-name="Path 4555" d="M68.884,81.9l5.993-4.082,1.2,1.763-7.907,5.384L59.394,72.041l7.735-5.266,1.194,1.763L62.5,72.5l2.661,3.921,5.076-3.458,1.211,1.782-5.078,3.456Z" transform="translate(52.685 59.407)" fill="#463ba8"/>
      <path id="Path_4556" data-name="Path 4556" d="M86.653,56.9a4.713,4.713,0,0,0,1.783-3.842c-.225-2.366-2.783-3.706-2.891-3.762a1.09,1.09,0,0,0-.443-.1l-14.664.119a1.8,1.8,0,0,1-1.31-.329,1.04,1.04,0,0,1-.2-.72.839.839,0,0,0,.013-.153c0-.461.411-5.163.672-8.029.6-7.332-3.346-9.462-3.453-9.514-.238-.146-2.366-1.4-4.116-.78a2.767,2.767,0,0,0-1.7,1.793.971.971,0,0,0-.045.44A20.56,20.56,0,0,1,49,53.656a6.886,6.886,0,0,0-5.967-3.494H38.418a6.924,6.924,0,0,0-6.91,6.92V75.429a6.924,6.924,0,0,0,6.91,6.92h4.619a6.9,6.9,0,0,0,6.474-4.582l5.627,1.529a.921.921,0,0,0,.249.034H82.7a.957.957,0,0,0,.559-.181,5.694,5.694,0,0,0,2.727-4.25,4.936,4.936,0,0,0-1.03-3.11,5.811,5.811,0,0,0,2.087-4.252A5.223,5.223,0,0,0,85.768,64.3a5.491,5.491,0,0,0,2.125-3.851,5.423,5.423,0,0,0-1.24-3.547M48.042,75.429a5.013,5.013,0,0,1-5,5.011H38.418a5.012,5.012,0,0,1-5-5.011V57.082a5.013,5.013,0,0,1,5-5.011h4.619a5.014,5.014,0,0,1,5,5.011ZM84.666,57.539a4.055,4.055,0,0,1,1.325,2.808c-.055,1.06-.794,2.094-2.2,3.074a.958.958,0,0,0-.408.762.947.947,0,0,0,.372.777,3.819,3.819,0,0,1,1.381,2.6c.013,1.113-.7,2.256-2.121,3.4a.958.958,0,0,0-.034,1.457,3.466,3.466,0,0,1,1.1,2.411,3.735,3.735,0,0,1-1.7,2.6H55.515L49.9,75.9c.011-.157.047-.306.047-.467V57.082a6.886,6.886,0,0,0-.223-1.661c2.163-1.073,14.37-7.855,12.494-23.394a.78.78,0,0,1,.459-.442,3.857,3.857,0,0,1,2.536.637c.121.066,2.987,1.721,2.5,7.695-.068.745-.645,7.128-.677,8.122a2.911,2.911,0,0,0,.659,2.2,3.367,3.367,0,0,0,2.791.979L84.862,51.1a3.369,3.369,0,0,1,1.678,2.145c.1,1.066-.945,2.122-1.838,2.819a.958.958,0,0,0-.036,1.474" transform="translate(27.949 26.347)" fill="#463ba8"/>
      <path id="Path_4557" data-name="Path 4557" d="M38.335,55.942a1.607,1.607,0,1,1,1.606-1.608,1.608,1.608,0,0,1-1.606,1.608" transform="translate(32.58 46.911)" fill="#463ba8"/>
    </g>
  </g>
</svg>
