<svg xmlns="http://www.w3.org/2000/svg" width="465" height="465" viewBox="0 0 465 465">
  <g id="Group_3076" data-name="Group 3076" transform="translate(0.5 0.502)">
    <path id="Exclusion_1" data-name="Exclusion 1" d="M449.274,267.55,267.542,449.278a50.261,50.261,0,0,1-71.082,0l-48.006-48.007L14.722,267.55a50.265,50.265,0,0,1,0-71.085L148.452,62.739l48.006-48.018a50.263,50.263,0,0,1,71.077,0l.006,0L449.274,196.458a50.259,50.259,0,0,1,.008,71.08Z" transform="translate(464 463.998) rotate(180)" fill="#6edcf9" stroke="rgba(0,0,0,0)" stroke-width="1"/>
    <path id="Intersection_1" data-name="Intersection 1" d="M14.722,43.276a50.27,50.27,0,0,0,0,71.089L58,157.635l43.273-43.271.011-.011a50.262,50.262,0,0,0-.011-71.082L58,0Z" transform="translate(115.998 310.81) rotate(180)" fill="#433ea2" stroke="rgba(0,0,0,0)" stroke-width="1"/>
  </g>
</svg>
