<svg xmlns="http://www.w3.org/2000/svg" width="465" height="464.999" viewBox="0 0 465 464.999">
  <g id="Group_3075" data-name="Group 3075" transform="translate(0.5 0.503)">
    <path id="Exclusion_1" data-name="Exclusion 1" d="M449.274,196.449,267.542,14.721a50.263,50.263,0,0,0-71.083,0L148.454,62.729,14.722,196.449a50.264,50.264,0,0,0,0,71.084L148.452,401.258l48.006,48.02a50.263,50.263,0,0,0,71.077,0l.006,0L449.274,267.541a50.259,50.259,0,0,0,.008-71.08Z" transform="translate(0 -0.002)" fill="#6edcf9" stroke="rgba(0,0,0,0)" stroke-width="1"/>
    <path id="Intersection_1" data-name="Intersection 1" d="M14.721,114.359a50.269,50.269,0,0,1,0-71.088L58,0l43.273,43.271.011.012a50.262,50.262,0,0,1-.011,71.082L58,157.635Z" transform="translate(348.002 153.174)" fill="#433ea2" stroke="rgba(0,0,0,0)" stroke-width="1"/>
  </g>
</svg>
