<svg xmlns="http://www.w3.org/2000/svg" width="34.367" height="34.367" viewBox="0 0 34.367 34.367"><defs><style>.a{fill:none;}.b{fill:#fff;}</style></defs><path class="a" d="M0,0H34.367V34.367H0Z"/><path class="b" d="M29.207,7.728H26.343V20.616H7.728v2.864A1.436,1.436,0,0,0,9.16,24.911H24.911l5.728,5.728V9.16A1.436,1.436,0,0,0,29.207,7.728ZM23.479,16.32V3.432A1.436,1.436,0,0,0,22.048,2H3.432A1.436,1.436,0,0,0,2,3.432V23.479l5.728-5.728h14.32A1.436,1.436,0,0,0,23.479,16.32Z" transform="translate(0.864 0.864)"/></svg>