<?xml version="1.0" encoding="utf-8"?>
<!-- Generator: Adobe Illustrator 25.2.1, SVG Export Plug-In . SVG Version: 6.00 Build 0)  -->
<svg version="1.1" id="Layer_1" xmlns="http://www.w3.org/2000/svg" xmlns:xlink="http://www.w3.org/1999/xlink" x="0px" y="0px"
	 viewBox="0 0 1024 768" style="enable-background:new 0 0 1024 768;" xml:space="preserve">
<style type="text/css">
	.st0{fill:#463BA8;}
	.st1{fill:#6EDCF9;}
	.st2{fill:#98C4F9;}
</style>
<g>
	<g>
		<g>
			<path class="st0" d="M360.17,461.41l-2.27-18.13l-7.67,15.07h-4.08l-7.71-15.04l-2.31,18.09h-5.03l3.46-26.98h4.37l9.23,18.56
				l9.19-18.56h4.37l3.46,26.98H360.17z"/>
			<path class="st0" d="M394.96,457.14v4.27h-17.85v-26.98h17.43v4.27H382.1v7.28h10.88v4.35H382.1v6.81H394.96z"/>
			<path class="st0" d="M406.82,434.43h11.13c8.12,0,12.86,5.87,12.86,13.55c0,7.63-4.74,13.43-12.86,13.43h-11.13V434.43z
				 M417.95,457.14c5.15,0,7.79-4.15,7.79-9.16c0-5.05-2.64-9.28-7.79-9.28h-6.1v18.44H417.95z"/>
			<path class="st0" d="M442.6,434.43h5.03v26.98h-5.03V434.43z"/>
			<path class="st0" d="M459.24,447.94c0-7.64,6.43-13.82,14.42-13.82c4.66,0,8.74,2.08,11.29,5.25l-3.79,2.74
				c-1.73-2.15-4.29-3.52-7.38-3.52c-5.4,0-9.48,4.19-9.48,9.36c0,5.17,4,9.36,9.48,9.36c3.09,0,5.65-1.37,7.38-3.48l3.79,2.7
				c-2.56,3.21-6.64,5.25-11.29,5.25C465.67,461.76,459.24,455.57,459.24,447.94z"/>
			<path class="st0" d="M511.13,454.79H500l-2.47,6.62h-5.36l10.67-26.98h5.44l10.63,26.98h-5.32L511.13,454.79z M509.61,450.64
				l-4.04-10.88l-4.04,10.88H509.61z"/>
			<path class="st0" d="M536.19,451.58h-2.55v9.83h-5.03v-26.98h11.13c6.35,0,9.03,4.35,9.03,8.65c0,3.84-2.1,7.48-7.05,8.34
				l7.42,9.98h-5.93L536.19,451.58z M533.63,447.55h5.07c3.54,0,5.03-1.92,5.03-4.39s-1.61-4.46-4.37-4.46h-5.73V447.55z"/>
			<path class="st0" d="M578.55,457.14v4.27h-17.85v-26.98h17.43v4.27h-12.45v7.28h10.88v4.35h-10.88v6.81H578.55z"/>
		</g>
		<g>
			<g>
				<path class="st0" d="M330.89,377.81c0-21.76,17.38-39.48,39.25-39.48c13.12,0,24.56,6.28,31.52,16.04L389.77,363
					c-4.37-6.17-10.88-9.98-19.07-9.98c-14.02,0-24.23,10.99-24.23,24.79s10.09,25.01,24.11,25.01c8.3,0,14.8-3.81,19.18-10.09
					l11.89,8.75c-6.95,9.65-18.39,16.04-31.52,16.04C348.27,417.51,330.89,399.79,330.89,377.81z"/>
				<path class="st0" d="M406.14,336.31h14.69v80.19h-14.69V336.31z"/>
				<path class="st0" d="M480.4,395.08h-39.48c1.57,6.05,6.51,9.42,13.57,9.42c5.27,0,10.54-2.13,13.68-5.83l8.63,8.64
					c-4.93,6.62-14.13,10.21-23.33,10.21c-16.04,0-27.81-10.99-27.81-27.14c0-16.93,12.78-27.48,27.81-27.48
					c14.92,0,27.14,10.54,27.14,26.58C480.63,390.93,480.52,392.72,480.4,395.08z M465.94,385.54c-0.45-6.17-5.61-9.87-12.22-9.87
					c-5.94,0-11.21,2.8-12.79,9.87H465.94z"/>
				<path class="st0" d="M542.72,364.24v52.26h-14.69v-6.5c-3.7,5.16-10.99,7.51-16.82,7.51c-13.46,0-25.68-10.43-25.68-27.25
					S497.75,363,511.2,363c6.06,0,13.12,2.24,16.82,7.51v-6.28H542.72z M527.58,390.25c0-8.07-6.73-13.46-13.57-13.46
					c-7.4,0-13.57,5.72-13.57,13.46c0,7.63,6.17,13.57,13.57,13.57C521.19,403.82,527.58,398.22,527.58,390.25z"/>
				<path class="st0" d="M667.49,416.5l-5.61-47.89l-18.84,39.14h-12.22l-19.07-39.14l-5.61,47.89h-15.93l9.53-77.27h13.23
					l23.89,50.69l23.66-50.69h13.46l9.42,77.27H667.49z"/>
				<path class="st0" d="M742.43,364.24v52.26h-14.69v-6.5c-3.7,5.16-10.99,7.51-16.82,7.51c-13.46,0-25.68-10.43-25.68-27.25
					S697.46,363,710.92,363c6.06,0,13.12,2.24,16.82,7.51v-6.28H742.43z M727.29,390.25c0-8.07-6.73-13.46-13.57-13.46
					c-7.4,0-13.57,5.72-13.57,13.46c0,7.63,6.17,13.57,13.57,13.57C720.9,403.82,727.29,398.22,727.29,390.25z"/>
				<path class="st0" d="M783.63,375.56h-11.1v40.93h-14.69v-40.93h-9.53v-11.33h9.53v-19.18h14.69v19.18h11.1V375.56z"/>
				<path class="st0" d="M784.72,390.14c0-16.6,13.46-27.25,28.71-27.25c9.53,0,17.16,4.49,22.09,11.21l-10.99,7.74
					c-2.36-3.25-6.73-5.27-10.99-5.27c-8.3,0-13.91,5.94-13.91,13.57c0,7.74,5.61,13.68,13.91,13.68c4.26,0,8.63-2.02,10.99-5.27
					l10.99,7.74c-4.93,6.84-12.56,11.22-22.09,11.22C798.18,417.51,784.72,406.74,784.72,390.14z"/>
				<path class="st0" d="M891.51,387.79v28.71h-14.69v-27.14c0-8.3-4.93-12-9.98-12c-5.27,0-11.78,2.8-11.78,12.34v26.8h-14.69
					v-80.19h14.69v36.11c2.24-6.62,10.65-9.53,15.7-9.53C884.44,362.89,891.62,372.09,891.51,387.79z"/>
				<path class="st0" d="M588.49,364.57c-2.36-1.23-5.5-1.68-8.3-1.68c-6.51,0-12.45,3.7-15.37,12.45v-11.1h-14.58v52.26h14.69
					v-17.94c0-14.92,5.16-21.87,12.67-21.87c1.26,0,2.9,0.11,4.85,0.75c1.43,0.47,2.76,1.22,3.98,2.09l1.86,1.33l1.91-15.52
					L588.49,364.57z"/>
				<g>
					<path class="st0" d="M891.53,366.19v-2.1h9.31v2.1h-3.41v9.26h-2.5v-9.26H891.53z"/>
					<path class="st0" d="M905.66,364.09l2.66,7.81h0.03l2.51-7.81h3.52v11.36h-2.34v-8.05h-0.03l-2.78,8.05h-1.93l-2.78-7.97h-0.03
						v7.97h-2.34v-11.36H905.66z"/>
				</g>
			</g>
		</g>
	</g>
	<path class="st1" d="M168.06,369l41.37-41.37l-14.85-14.85c-6.07-6.07-15.92-6.07-21.99,0L116.37,369
		c-6.07,6.07-6.07,15.92,0,21.99l56.21,56.21c6.07,6.07,15.92,6.07,21.99,0l14.85-14.85l-41.37-41.37
		C161.99,384.91,161.99,375.07,168.06,369z"/>
	<path class="st2" d="M302.47,369l-56.21-56.21c-6.07-6.07-15.92-6.07-21.99,0l-14.85,14.85L250.79,369
		c6.07,6.07,6.07,15.92,0,21.99l-41.37,41.37l14.85,14.85c6.07,6.07,15.92,6.07,21.99,0l56.21-56.21
		C308.54,384.91,308.54,375.07,302.47,369z"/>
	<path class="st0" d="M250.79,369l-41.37-41.37L168.06,369c-6.07,6.07-6.07,15.92,0,21.99l41.37,41.37l41.37-41.37
		C256.86,384.91,256.86,375.07,250.79,369z"/>
</g>
</svg>
