<?xml version="1.0" encoding="utf-8"?>
<!-- Generator: Adobe Illustrator 25.2.1, SVG Export Plug-In . SVG Version: 6.00 Build 0)  -->
<svg version="1.1" id="Layer_1" xmlns="http://www.w3.org/2000/svg" xmlns:xlink="http://www.w3.org/1999/xlink" x="0px" y="0px"
	 viewBox="0 0 792 612" style="enable-background:new 0 0 792 612;" xml:space="preserve">
<style type="text/css">
	.st0{fill:#4A449B;}
	.st1{fill:#79D1EE;}
</style>
<path id="Path_311" class="st0" d="M432.34,316.48c-2.72-2.38-6.76-2.45-9.55-0.16l-8.42,6.74c-0.26,0.21-0.58,0.32-0.92,0.32h-5.69
	c0.66-1.37,0.88-2.91,0.66-4.42c-0.67-3.82-4.02-6.59-7.9-6.52h-19.71c-2.84,0-5.6,0.92-7.87,2.62l-5.25,3.94h-10.57
	c-0.6,0-1.09,0.49-1.09,1.09v2.19c0,0.6,0.49,1.09,1.09,1.09h12.03l6.41-4.81c1.52-1.13,3.36-1.75,5.25-1.75h20.05
	c1.81-0.03,3.31,1.41,3.34,3.22s-1.41,3.31-3.22,3.34c-0.04,0-0.08,0-0.11,0h-12.03c-1.21,0-2.19,0.98-2.19,2.18
	c0,1.21,0.98,2.19,2.18,2.19c0,0,0.01,0,0.01,0h24.63c1.32,0,2.61-0.45,3.65-1.27l8.42-6.73c1.12-0.94,2.76-0.94,3.88,0
	c1.2,1.06,1.32,2.9,0.25,4.1c-0.11,0.13-0.24,0.25-0.38,0.36l-13.78,11.03c-1.04,0.83-2.32,1.28-3.65,1.27h-54.74
	c-0.6,0-1.09,0.49-1.09,1.09v2.19c0,0.6,0.49,1.09,1.09,1.09h54.74c2.32,0,4.56-0.79,6.37-2.24l13.79-11.03
	c3.15-2.52,3.65-7.12,1.13-10.26C432.91,317.03,432.64,316.74,432.34,316.48L432.34,316.48z"/>
<path id="Path_312" class="st1" d="M391.12,289.43l7.71,2.2c1.49,0.42,2.35,1.97,1.94,3.45c-0.34,1.21-1.45,2.04-2.7,2.04h-5.04
	c-1.11,0-2.19-0.35-3.09-1c-0.43-0.29-1-0.22-1.34,0.16l-1.56,1.56c-0.43,0.44-0.42,1.14,0.02,1.57c0.04,0.03,0.07,0.07,0.11,0.1
	c1.68,1.29,3.74,1.99,5.86,1.98h0.19v3.28c0,0.6,0.49,1.09,1.09,1.09h2.19c0.6,0,1.09-0.49,1.09-1.09v-3.28h0.19
	c3.14,0.06,5.97-1.87,7.07-4.81c1.3-3.76-0.71-7.87-4.47-9.16c-0.11-0.04-0.22-0.07-0.33-0.1l-8.08-2.31
	c-1.49-0.42-2.35-1.97-1.94-3.45c0.34-1.21,1.45-2.04,2.7-2.04h5.04c1.11,0,2.19,0.35,3.09,1c0.43,0.29,1,0.22,1.34-0.16l1.56-1.56
	c0.43-0.44,0.42-1.14-0.02-1.57c-0.04-0.03-0.07-0.07-0.11-0.1c-1.69-1.28-3.75-1.97-5.86-1.97h-0.19v-3.28
	c0-0.6-0.49-1.09-1.09-1.09h-2.19c-0.6,0-1.09,0.49-1.09,1.09v3.28h-0.48c-3.96,0-7.17,3.22-7.17,7.18c0,0.23,0.01,0.45,0.03,0.68
	C385.97,286.15,388.16,288.66,391.12,289.43z"/>
</svg>
