<?xml version="1.0" encoding="utf-8"?>
<!-- Generator: Adobe Illustrator 25.2.1, SVG Export Plug-In . SVG Version: 6.00 Build 0)  -->
<svg version="1.1" id="Layer_1" xmlns="http://www.w3.org/2000/svg" xmlns:xlink="http://www.w3.org/1999/xlink" x="0px" y="0px"
	 viewBox="0 0 792 612" style="enable-background:new 0 0 792 612;" xml:space="preserve">
<style type="text/css">
	.st0{fill:#FFFFFF;stroke:#2C2F73;stroke-width:2.717;stroke-linecap:round;stroke-miterlimit:10;stroke-dasharray:0,4.363;}
	.st1{fill:#2C2F73;}
</style>
<g id="Group_603" transform="translate(-594.266 -295.233)">
	<g id="Group_591" transform="translate(595.624 296.592)">
		<g id="Group_590">
			<ellipse id="Ellipse_12" class="st0" cx="394.5" cy="304.52" rx="75" ry="75"/>
		</g>
	</g>
	<g id="Group_593" transform="translate(599.277 300.238)">
		<g id="Group_592" transform="translate(0 0)">
			<path id="Path_340" class="st1" d="M400.69,234.08c36.89,5.43,62.38,39.74,56.95,76.63c-5.43,36.89-39.74,62.38-76.63,56.95
				c-36.89-5.43-62.38-39.74-56.95-76.63C329.53,254.17,363.81,228.69,400.69,234.08 M401.24,230.29
				c-38.98-5.74-75.23,21.2-80.97,60.18c-5.74,38.98,21.2,75.23,60.18,80.97c38.98,5.74,75.23-21.2,80.97-60.18c0,0,0,0,0,0
				C467.17,272.29,440.22,236.03,401.24,230.29z"/>
		</g>
	</g>
	<path id="Path_341" class="st1" d="M999.36,538.32c-26.58-3.92-52.75,9.26-65.41,32.96l118.49,17.33
		C1047.18,562.29,1025.92,542.14,999.36,538.32z M981.13,560.18l-3.12-3.03l-3.87,2l1.95-3.85l-3.13-3.01l4.33,0.65l1.93-3.87
		l0.73,4.25l4.34,0.62l-3.88,1.99L981.13,560.18z M1000.1,561.83l-4.15-4.01l-5.14,2.66l2.58-5.12l-4.16-4l5.75,0.86l2.57-5.13
		l0.96,5.65l5.76,0.83l-5.16,2.63L1000.1,561.83z M1016.45,565.35l-3.13-3.03l-3.87,2l1.95-3.85l-3.14-3.01l4.33,0.65l1.93-3.87
		l0.73,4.25l4.34,0.62l-3.88,1.99L1016.45,565.35z"/>
	<path id="Path_342" class="st1" d="M927.83,613.63c7,34.44,40.6,56.68,75.04,49.68c18.58-3.78,34.5-15.64,43.44-32.36
		L927.83,613.63z M967.13,648.99l-3.35-3.24l-4.15,2.14l2.09-4.12l-3.36-3.22l4.63,0.69l2.07-4.13l0.78,4.55l4.64,0.66l-4.16,2.12
		L967.13,648.99z M985.61,649.74l1.06,6.03l-4.44-4.3l-5.5,2.85l2.76-5.48l-4.46-4.28l6.15,0.91l2.75-5.49l1.03,6.04l6.16,0.89
		L985.61,649.74z M1004.91,654.52l-3.35-3.24l-4.15,2.14l2.09-4.12l-3.36-3.22l4.63,0.69l2.07-4.13l0.78,4.55l4.64,0.67l-4.15,2.12
		L1004.91,654.52z"/>
	<g id="Group_594" transform="translate(728.407 365.086)">
		<path id="Path_343" class="st1" d="M320.24,235.73c0.37-0.81,0.73-1.61,1.12-2.4l-1.87-1.83l2.59,0.38
			c0.4-0.78,0.81-1.58,1.23-2.35c0.1,0.87,0.22,1.74,0.35,2.6l2.57,0.43c-0.78,0.36-1.54,0.74-2.31,1.13
			c0.15,0.85,0.32,1.69,0.49,2.52l-1.91-1.77C321.76,234.85,321,235.28,320.24,235.73z"/>
	</g>
	<g id="Group_595" transform="translate(727.461 377.433)">
		<path id="Path_344" class="st1" d="M320.24,235.73c0.37-0.81,0.73-1.61,1.12-2.4l-1.87-1.83l2.59,0.38
			c0.4-0.78,0.81-1.58,1.23-2.35c0.1,0.87,0.22,1.74,0.35,2.6l2.57,0.43c-0.78,0.36-1.54,0.74-2.31,1.13
			c0.15,0.85,0.32,1.69,0.49,2.52l-1.91-1.77C321.76,234.86,321,235.28,320.24,235.73z"/>
	</g>
	<g id="Group_596" transform="translate(724.827 389.53)">
		<path id="Path_345" class="st1" d="M320.24,235.73c0.37-0.81,0.73-1.61,1.12-2.4l-1.87-1.83l2.59,0.38
			c0.4-0.78,0.81-1.58,1.23-2.35c0.1,0.87,0.22,1.74,0.35,2.6l2.57,0.43c-0.78,0.36-1.54,0.74-2.31,1.13
			c0.15,0.85,0.32,1.69,0.49,2.52l-1.91-1.77C321.76,234.86,321,235.29,320.24,235.73z"/>
	</g>
	<g id="Group_597" transform="translate(609.461 347.587)">
		<path id="Path_346" class="st1" d="M320.24,235.73c0.37-0.81,0.73-1.61,1.12-2.4l-1.87-1.83l2.59,0.38
			c0.4-0.78,0.81-1.58,1.23-2.35c0.1,0.87,0.22,1.74,0.35,2.6l2.57,0.43c-0.78,0.36-1.54,0.74-2.31,1.13
			c0.15,0.85,0.32,1.69,0.49,2.52l-1.91-1.77C321.76,234.86,321,235.28,320.24,235.73z"/>
	</g>
	<g id="Group_598" transform="translate(605.984 359.565)">
		<path id="Path_347" class="st1" d="M320.24,235.73c0.37-0.81,0.73-1.61,1.12-2.4l-1.87-1.83l2.59,0.38
			c0.4-0.78,0.81-1.58,1.23-2.35c0.1,0.87,0.22,1.74,0.35,2.6l2.57,0.43c-0.78,0.36-1.54,0.74-2.31,1.13
			c0.15,0.85,0.32,1.69,0.49,2.52l-1.91-1.77C321.76,234.85,321,235.28,320.24,235.73z"/>
	</g>
	<g id="Group_599" transform="translate(605.882 372.04)">
		<path id="Path_348" class="st1" d="M320.24,235.73c0.37-0.81,0.73-1.61,1.12-2.4l-1.87-1.83l2.59,0.38
			c0.4-0.78,0.81-1.58,1.23-2.35c0.1,0.87,0.22,1.74,0.35,2.6l2.57,0.43c-0.78,0.36-1.54,0.74-2.31,1.13
			c0.15,0.85,0.32,1.69,0.49,2.52l-1.91-1.77C321.76,234.85,321,235.28,320.24,235.73z"/>
	</g>
	<g id="Group_602" transform="translate(619.645 347.947)">
		<g id="Group_600" transform="translate(0 17.56)">
			<path id="Path_349" class="st1" d="M324.7,237.51l3.82,0.56l-0.81,5.51c-0.41,2.8-2.03,4.16-4.7,3.76s-3.84-2.16-3.42-4.96
				l1.33-9.02c0.41-2.8,2.03-4.16,4.7-3.77s3.84,2.16,3.42,4.96l-0.25,1.69l-2.57-0.38l0.27-1.86c0.19-1.26-0.29-1.79-1.16-1.92
				s-1.47,0.24-1.66,1.5l-1.38,9.37c-0.19,1.26,0.3,1.76,1.17,1.89s1.47-0.21,1.66-1.47l0.47-3.2l-1.24-0.18L324.7,237.51z"/>
			<path id="Path_350" class="st1" d="M335.48,231.25l-1.97,13.38c-0.19,1.26,0.3,1.76,1.17,1.89s1.47-0.21,1.66-1.47l1.97-13.38
				l2.57,0.38l-1.94,13.21c-0.41,2.8-2.03,4.16-4.7,3.76s-3.84-2.16-3.42-4.96l1.94-13.21L335.48,231.25z"/>
			<path id="Path_351" class="st1" d="M350.5,251.18l-2.75-0.41l-0.01-3.21l-3.34-0.49l-0.94,3.08l-2.51-0.37l5.33-16.93l3.99,0.59
				L350.5,251.18z M345.09,244.76l2.62,0.38l-0.03-8.97L345.09,244.76z"/>
			<path id="Path_352" class="st1" d="M358.94,252.42c-0.01-0.13-0.04-0.23-0.05-0.34c-0.05-0.32-0.04-0.65,0.02-0.96
				c0.01-0.23,0.05-0.52,0.1-0.87l0.4-2.73c0.24-1.61-0.2-2.28-1.46-2.47l-0.94-0.14l-1.04,7.07l-2.73-0.4l2.56-17.34l4.12,0.61
				c2.85,0.42,3.84,1.91,3.45,4.58l-0.2,1.36c-0.27,1.78-1.03,2.87-2.3,3.26c1.3,0.78,1.53,2.15,1.27,3.95l-0.39,2.68
				c-0.15,0.71-0.16,1.44-0.02,2.15L358.94,252.42z M358.16,237.11l-0.78,5.33l1.07,0.15c1.01,0.15,1.7-0.2,1.91-1.59l0.26-1.71
				c0.19-1.26-0.16-1.85-1.12-1.99L358.16,237.11z"/>
			<path id="Path_353" class="st1" d="M373.52,254.57l-2.75-0.41l-0.01-3.21l-3.35-0.49l-0.94,3.08l-2.51-0.37l5.33-16.93l3.99,0.59
				L373.52,254.57z M368.11,248.15l2.62,0.38l-0.02-8.97L368.11,248.15z"/>
			<path id="Path_354" class="st1" d="M380.54,242.76l-1.85,12.56l-2.45-0.36l2.56-17.34l3.42,0.5l1.27,10.8l1.53-10.38l2.43,0.36
				l-2.56,17.34l-2.8-0.41L380.54,242.76z"/>
			<path id="Path_355" class="st1" d="M390.1,239.29l8.43,1.24l-0.37,2.48l-2.85-0.42l-2.19,14.87l-2.73-0.4l2.19-14.87l-2.85-0.42
				L390.1,239.29z"/>
			<path id="Path_356" class="st1" d="M402.84,248.64l3.74,0.55l-0.37,2.48l-3.74-0.55l-0.75,5.08l4.7,0.69l-0.37,2.48l-7.43-1.09
				l2.56-17.34l7.43,1.09l-0.37,2.48l-4.7-0.69L402.84,248.64z"/>
			<path id="Path_357" class="st1" d="M413.45,250.2l3.74,0.55l-0.37,2.48l-3.74-0.55l-0.75,5.08l4.7,0.69l-0.37,2.48l-7.43-1.09
				l2.56-17.34l7.43,1.09l-0.37,2.48l-4.7-0.69L413.45,250.2z"/>
		</g>
		<g id="Group_601" transform="translate(3)">
			<path id="Path_358" class="st1" d="M329.19,236.99l-3.83-0.56l0.38-2.56c0.1-0.46,0.13-0.94,0.09-1.41
				c-0.05-0.2-0.22-0.32-0.5-0.36c-0.25-0.07-0.51,0.03-0.65,0.25c-0.18,0.46-0.3,0.94-0.34,1.43l-1.01,6.83
				c-0.09,0.47-0.12,0.94-0.08,1.42c0.06,0.24,0.28,0.41,0.53,0.41c0.23,0.06,0.48-0.04,0.6-0.25c0.19-0.49,0.31-1,0.36-1.52
				l0.27-1.85l3.83,0.56l-0.09,0.57c-0.11,1.1-0.38,2.17-0.8,3.19c-0.38,0.66-0.96,1.18-1.67,1.47c-0.89,0.38-1.88,0.49-2.83,0.32
				c-0.97-0.11-1.89-0.45-2.68-1.01c-0.63-0.45-1.06-1.14-1.19-1.9c-0.12-1.1-0.08-2.21,0.12-3.29l0.63-4.3
				c0.1-0.8,0.26-1.59,0.46-2.37c0.17-0.54,0.47-1.04,0.88-1.43c0.46-0.45,1.04-0.78,1.67-0.94c0.74-0.19,1.51-0.22,2.27-0.1
				c0.98,0.1,1.91,0.47,2.69,1.07c0.61,0.45,1.03,1.1,1.2,1.84c0.13,1.03,0.1,2.07-0.1,3.08L329.19,236.99z"/>
			<path id="Path_359" class="st1" d="M335.79,231.41l-1.73,11.76l2.33,0.34l-0.43,2.94l-6.15-0.9l2.16-14.71L335.79,231.41z"/>
			<path id="Path_360" class="st1" d="M339.51,231.97l6.38,0.94l-0.43,2.94l-2.56-0.38l-0.41,2.79l2.39,0.35l-0.41,2.8l-2.39-0.35
				l-0.48,3.23l2.8,0.42l-0.43,2.94l-6.63-0.98L339.51,231.97z"/>
			<path id="Path_361" class="st1" d="M354.32,234.15l0.02,15.03l-3.91-0.58l0.19-2.68l-1.37-0.2l-0.62,2.61l-3.95-0.58l4.12-14.42
				L354.32,234.15z M350.89,243.3c0.05-1.7,0.16-3.78,0.32-6.26c-0.8,2.76-1.35,4.78-1.65,6.07L350.89,243.3z"/>
			<path id="Path_362" class="st1" d="M357.62,234.64l2.71,0.4c1.23,0.14,2.45,0.39,3.63,0.75c0.62,0.23,1.13,0.7,1.41,1.3
				c0.34,0.9,0.41,1.89,0.2,2.83c-0.04,0.8-0.31,1.58-0.77,2.24c-0.5,0.4-1.15,0.56-1.78,0.46c0.56,0.17,1.06,0.52,1.41,0.98
				c0.19,0.28,0.31,0.6,0.36,0.94c-0.02,0.73-0.09,1.47-0.22,2.19L364,250.6l-3.55-0.52l0.72-4.89c0.12-0.49,0.13-1,0.03-1.49
				c-0.09-0.2-0.41-0.35-0.94-0.43l-0.98,6.63l-3.82-0.57L357.62,234.64z M361.08,237.71l-0.49,3.27c0.31,0.07,0.63,0.06,0.93-0.04
				c0.19-0.09,0.33-0.46,0.43-1.11l0.12-0.81c0.09-0.32,0.05-0.66-0.11-0.95C361.71,237.85,361.4,237.73,361.08,237.71z"/>
			<path id="Path_363" class="st1" d="M379.32,237.83l-2.16,14.71l-3.34-0.5l1.46-9.93l-2.8,9.73l-2.37-0.35l0.03-9.91l-1.43,9.7
				l-3.34-0.49l2.16-14.71l4.95,0.73c0.02,0.9,0.02,1.97-0.01,3.2l-0.01,3.82l1.89-6.74L379.32,237.83z"/>
			<path id="Path_364" class="st1" d="M387.93,239.09l0.02,15.03l-3.91-0.58l0.19-2.68l-1.37-0.2l-0.62,2.61l-3.95-0.58l4.12-14.42
				L387.93,239.09z M384.51,248.26c0.05-1.7,0.16-3.78,0.32-6.26c-0.8,2.76-1.35,4.78-1.65,6.07L384.51,248.26z"/>
			<path id="Path_365" class="st1" d="M397.91,240.57l-0.43,2.94l-2.27-0.33l-1.73,11.76l-3.83-0.56l1.73-11.76l-2.26-0.33
				l0.43-2.94L397.91,240.57z"/>
			<path id="Path_366" class="st1" d="M407.23,248.49l-3.83-0.56l0.38-2.56c0.1-0.46,0.13-0.94,0.09-1.41
				c-0.05-0.2-0.22-0.32-0.5-0.36c-0.25-0.07-0.51,0.03-0.65,0.25c-0.18,0.46-0.3,0.94-0.34,1.43l-1.01,6.83
				c-0.09,0.47-0.12,0.94-0.08,1.42c0.06,0.24,0.28,0.41,0.53,0.41c0.23,0.06,0.48-0.04,0.6-0.25c0.19-0.49,0.31-1,0.36-1.52
				l0.27-1.85l3.83,0.56l-0.09,0.57c-0.11,1.1-0.38,2.17-0.8,3.19c-0.38,0.66-0.96,1.18-1.67,1.47c-0.89,0.38-1.88,0.49-2.83,0.32
				c-0.97-0.11-1.89-0.45-2.68-1.01c-0.63-0.45-1.06-1.14-1.19-1.9c-0.12-1.1-0.08-2.21,0.12-3.29l0.63-4.3
				c0.1-0.8,0.26-1.59,0.46-2.37c0.17-0.54,0.47-1.04,0.88-1.43c0.46-0.45,1.04-0.78,1.67-0.94c0.74-0.19,1.51-0.22,2.27-0.1
				c0.98,0.1,1.91,0.47,2.69,1.07c0.61,0.45,1.03,1.1,1.2,1.84c0.13,1.03,0.1,2.07-0.1,3.08L407.23,248.49z"/>
			<path id="Path_367" class="st1" d="M418.81,243.64l-2.16,14.71l-3.83-0.56l0.91-6.18l-1.14-0.17l-0.91,6.18l-3.83-0.56
				l2.16-14.71l3.83,0.56l-0.78,5.26l1.14,0.17l0.78-5.26L418.81,243.64z"/>
		</g>
	</g>
</g>
</svg>
