<?xml version="1.0" encoding="utf-8"?>
<!-- Generator: Adobe Illustrator 25.2.1, SVG Export Plug-In . SVG Version: 6.00 Build 0)  -->
<svg version="1.1" id="Layer_1" xmlns="http://www.w3.org/2000/svg" xmlns:xlink="http://www.w3.org/1999/xlink" x="0px" y="0px"
	 viewBox="0 0 792 612" style="enable-background:new 0 0 792 612;" xml:space="preserve">
<style type="text/css">
	.st0{fill:#FFFFFF;}
</style>
<g id="Group_440" transform="translate(-874.163 -152.69)">
	<g id="Group_444" transform="translate(938.635 160.976)">
		<g id="Group_440-2" transform="translate(0.067 28.626)">
			<path id="Path_231" class="st0" d="M286.96,291.57l-0.66-5.3l-2.24,4.41h-1.19l-2.26-4.4l-0.67,5.29h-1.47l1.01-7.9h1.28
				l2.7,5.43l2.69-5.43h1.28l1.01,7.9L286.96,291.57z"/>
			<path id="Path_232" class="st0" d="M297.14,290.32v1.25h-5.22v-7.9h5.1v1.25h-3.64v2.13h3.18v1.27h-3.18v2H297.14z"/>
			<path id="Path_233" class="st0" d="M300.61,283.67h3.26c2.18,0.07,3.89,1.89,3.82,4.08c-0.07,2.08-1.74,3.76-3.82,3.82h-3.26
				V283.67z M303.87,290.32c1.51,0,2.28-1.21,2.28-2.68s-0.77-2.72-2.28-2.72h-1.79v5.4H303.87z"/>
			<path id="Path_234" class="st0" d="M311.08,283.67h1.47v7.9h-1.47V283.67z"/>
			<path id="Path_235" class="st0" d="M315.95,287.62c0.05-2.28,1.93-4.09,4.21-4.04c0,0,0.01,0,0.01,0
				c1.28-0.02,2.49,0.55,3.31,1.54l-1.11,0.8c-0.95-1.18-2.67-1.36-3.84-0.42c-1.18,0.95-1.36,2.67-0.42,3.84
				c0.95,1.18,2.67,1.36,3.84,0.42c0.15-0.12,0.29-0.26,0.42-0.42l1.11,0.79c-0.81,0.99-2.03,1.55-3.31,1.54
				C317.89,291.72,316,289.91,315.95,287.62C315.95,287.63,315.95,287.63,315.95,287.62z"/>
			<path id="Path_236" class="st0" d="M331.14,289.63h-3.26l-0.72,1.94h-1.57l3.12-7.9h1.59l3.11,7.9h-1.55L331.14,289.63z
				 M330.69,288.41l-1.18-3.19l-1.18,3.19H330.69z"/>
			<path id="Path_237" class="st0" d="M338.47,288.69h-0.75v2.88h-1.48v-7.9h3.26c1.34-0.12,2.52,0.87,2.63,2.21
				c0.01,0.11,0.01,0.21,0.01,0.32c0.06,1.23-0.84,2.29-2.06,2.44l2.17,2.92h-1.74L338.47,288.69z M337.72,287.51h1.48
				c1.04,0,1.47-0.56,1.47-1.28c0.04-0.68-0.47-1.26-1.15-1.3c-0.04,0-0.08,0-0.13,0h-1.68V287.51z"/>
			<path id="Path_238" class="st0" d="M350.87,290.32v1.25h-5.22v-7.9h5.1v1.25h-3.64v2.13h3.18v1.27h-3.18v2H350.87z"/>
		</g>
		<g id="Group_443">
			<g id="Group_442">
				<path id="Path_239" class="st0" d="M278.45,295.72c-0.03-6.35,5.09-11.52,11.43-11.55c0.02,0,0.04,0,0.05,0
					c3.66-0.03,7.1,1.72,9.22,4.69l-3.48,2.53c-1.25-1.85-3.35-2.95-5.58-2.92c-4.02,0.11-7.2,3.45-7.1,7.48
					c0.1,3.86,3.2,6.98,7.06,7.09c2.25,0.04,4.37-1.08,5.61-2.95l3.48,2.56c-2.14,2.96-5.57,4.71-9.22,4.69
					c-6.36-0.01-11.5-5.17-11.49-11.53C278.45,295.78,278.45,295.75,278.45,295.72z"/>
				<path id="Path_240" class="st0" d="M300.48,283.58h4.3v23.47h-4.3V283.58z"/>
				<path id="Path_241" class="st0" d="M322.21,300.78h-11.55c0.47,1.77,2.15,2.94,3.97,2.76c1.52,0.03,2.97-0.59,4.01-1.71
					l2.53,2.53c-1.7,1.99-4.21,3.09-6.83,2.99c-4.69,0-8.14-3.22-8.14-7.94c-0.12-4.32,3.29-7.93,7.62-8.04c0.17,0,0.35,0,0.52,0
					c4.21-0.17,7.76,3.1,7.94,7.31c0.01,0.16,0.01,0.31,0,0.47C322.28,299.56,322.25,300.09,322.21,300.78z M317.98,297.99
					c-0.13-1.8-1.64-2.89-3.58-2.89c-1.8-0.14-3.42,1.11-3.74,2.89H317.98z"/>
				<path id="Path_242" class="st0" d="M340.45,291.75v15.3h-4.3v-1.9c-1.22,1.44-3.03,2.25-4.92,2.2c-3.94,0-7.52-3.05-7.52-7.98
					s3.58-7.98,7.52-7.98c1.9-0.08,3.72,0.74,4.92,2.2v-1.84L340.45,291.75z M336.02,299.37c0-2.19-1.78-3.97-3.97-3.97
					s-3.97,1.78-3.97,3.97c0,2.19,1.78,3.97,3.97,3.97c0,0,0,0,0,0c2.18,0.01,3.96-1.75,3.98-3.93
					C336.03,299.4,336.03,299.38,336.02,299.37L336.02,299.37z"/>
				<path id="Path_243" class="st0" d="M376.97,307.05l-1.64-14.02l-5.52,11.45h-3.58l-5.58-11.46l-1.64,14.02h-4.66l2.79-22.62
					h3.87l6.99,14.84l6.93-14.84h3.94l2.76,22.62L376.97,307.05z"/>
				<path id="Path_244" class="st0" d="M398.9,291.75v15.3h-4.3v-1.9c-1.22,1.44-3.03,2.25-4.92,2.2c-3.94,0-7.52-3.05-7.52-7.98
					s3.58-7.98,7.52-7.98c1.9-0.08,3.72,0.74,4.92,2.2v-1.84L398.9,291.75z M394.47,299.37c0-2.19-1.78-3.97-3.97-3.97
					s-3.97,1.78-3.97,3.97c0,2.19,1.78,3.97,3.97,3.97c2.18,0.01,3.96-1.75,3.97-3.94C394.47,299.39,394.47,299.38,394.47,299.37
					L394.47,299.37z"/>
				<path id="Path_245" class="st0" d="M410.96,295.07h-3.25v11.98h-4.3v-11.98h-2.79v-3.32h2.79v-5.61h4.3v5.61h3.25V295.07z"/>
				<path id="Path_246" class="st0" d="M411.28,299.34c0-4.86,3.94-7.98,8.4-7.98c2.56-0.03,4.98,1.2,6.47,3.28l-3.22,2.26
					c-0.78-0.98-1.96-1.55-3.22-1.54c-2.2-0.05-4.03,1.7-4.08,3.9c-0.05,2.2,1.7,4.03,3.9,4.08c0.06,0,0.12,0,0.18,0
					c1.25,0.01,2.44-0.56,3.22-1.54l3.22,2.26c-1.48,2.1-3.9,3.32-6.47,3.28C415.22,307.34,411.28,304.19,411.28,299.34z"/>
				<path id="Path_247" class="st0" d="M442.54,298.65v8.4h-4.3v-7.94c0-2.43-1.44-3.51-2.92-3.51c-1.8-0.11-3.35,1.26-3.46,3.06
					c-0.01,0.19-0.01,0.37,0.01,0.56v7.85h-4.3v-23.47h4.3v10.57c0.66-1.94,3.12-2.79,4.6-2.79
					C440.47,291.36,442.57,294.05,442.54,298.65z"/>
				<path id="Path_248" class="st0" d="M353.85,291.85c-0.76-0.35-1.59-0.52-2.43-0.49c-1.91,0-3.64,1.08-4.5,3.64v-3.25h-4.27v15.3
					h4.3v-5.25c0-4.36,1.51-6.4,3.71-6.4c0.93-0.02,1.84,0.28,2.58,0.83l0.54,0.39l0.56-4.54L353.85,291.85z"/>
				<g id="Group_441" transform="translate(164.087 8.132)">
					<path id="Path_249" class="st0" d="M278.45,284.19v-0.61h2.72v0.61h-1v2.71h-0.73v-2.71H278.45z"/>
					<path id="Path_250" class="st0" d="M282.59,283.58l0.78,2.29h0.01l0.73-2.29h1.03v3.33h-0.69v-2.36h-0.01l-0.81,2.36h-0.56
						l-0.81-2.33h-0.01v2.33h-0.69v-3.33H282.59z"/>
				</g>
			</g>
		</g>
	</g>
	<path id="Path_251" class="st0" d="M1169.08,454.08l12.11-12.12l-4.35-4.35c-1.77-1.78-4.65-1.78-6.43-0.01c0,0-0.01,0-0.01,0.01
		l-16.45,16.48c-1.78,1.78-1.78,4.67,0,6.45l16.45,16.48c1.77,1.78,4.65,1.78,6.42,0.01c0,0,0.01-0.01,0.01-0.01l4.35-4.35
		l-12.11-12.12C1167.3,458.75,1167.3,455.86,1169.08,454.08z"/>
	<path id="Path_252" class="st0" d="M1208.42,454.08l-16.45-16.48c-1.77-1.78-4.65-1.78-6.43-0.01c0,0,0,0-0.01,0.01l-4.34,4.35
		l12.1,12.12c1.78,1.78,1.78,4.67,0,6.45l-12.1,12.13l4.34,4.35c1.77,1.78,4.65,1.78,6.43,0.01c0,0,0.01-0.01,0.01-0.01l16.45-16.48
		C1210.19,458.74,1210.19,455.86,1208.42,454.08z"/>
</g>
</svg>
