<svg id="Group_1046" data-name="Group 1046" xmlns="http://www.w3.org/2000/svg" width="62.566" height="46" viewBox="0 0 62.566 46">
  <g id="Group_386" data-name="Group 386">
    <path id="Path_125" data-name="Path 125" d="M449.545,344.7,462.8,331.444l-4.76-4.76a4.983,4.983,0,0,0-7.046,0L432.979,344.7a4.983,4.983,0,0,0,0,7.047L451,369.766a4.983,4.983,0,0,0,7.046,0l4.76-4.759-13.258-13.258A4.982,4.982,0,0,1,449.545,344.7Z" transform="translate(-431.52 -325.225)" fill="#6edcf9"/>
    <path id="Path_126" data-name="Path 126" d="M505.845,344.7l-18.017-18.017a4.983,4.983,0,0,0-7.047,0l-4.759,4.76L489.28,344.7a4.983,4.983,0,0,1,0,7.047l-13.258,13.258,4.759,4.759a4.983,4.983,0,0,0,7.047,0l18.017-18.017A4.982,4.982,0,0,0,505.845,344.7Z" transform="translate(-444.739 -325.225)" fill="#98c4f9"/>
    <path id="Path_127" data-name="Path 127" d="M483.061,347.33,469.8,334.072,456.545,347.33a4.982,4.982,0,0,0,0,7.047L469.8,367.635l13.258-13.258A4.984,4.984,0,0,0,483.061,347.33Z" transform="translate(-438.52 -327.853)" fill="#463ba8"/>
  </g>
</svg>
