<svg xmlns="http://www.w3.org/2000/svg" xmlns:xlink="http://www.w3.org/1999/xlink" width="200" height="189" viewBox="0 0 200 189">
  <defs>
    <clipPath id="clip-path">
      <rect id="Rectangle_1898" data-name="Rectangle 1898" width="200" height="189" transform="translate(1024.107 135)" fill="#463ba8"/>
    </clipPath>
  </defs>
  <g id="Mask_Group_40" data-name="Mask Group 40" transform="translate(-1024.107 -135)" clip-path="url(#clip-path)">
    <path id="Path_3503" data-name="Path 3503" d="M319.847,316.509l-38.82-37.918-38.821,37.918a14.019,14.019,0,0,0,0,20.154l38.821,37.918,38.82-37.918A14.018,14.018,0,0,0,319.847,316.509Z" transform="translate(816.693 -180.641)" fill="#fbb230"/>
    <path id="Path_3504" data-name="Path 3504" d="M890.133,261.543l-23.4-22.857-23.4,22.857a8.45,8.45,0,0,0,0,12.149l23.4,22.857,23.4-22.857A8.45,8.45,0,0,0,890.133,261.543Z" transform="translate(191.065 -61.647)" fill="#212975"/>
    <path id="Path_3505" data-name="Path 3505" d="M511.227,133.01,426.978,50.721a23.7,23.7,0,0,0-32.952,0L371.771,72.458,309.777,133.01a22.386,22.386,0,0,0,0,32.185l61.995,60.553,22.255,21.737a23.693,23.693,0,0,0,32.952,0L511.227,165.2A22.386,22.386,0,0,0,511.227,133.01Z" transform="translate(814.335 61.708)" fill="#98c4f9"/>
  </g>
</svg>
