<svg id="Component_54_3" data-name="Component 54 – 3" xmlns="http://www.w3.org/2000/svg" width="125" height="125" viewBox="0 0 125 125">
  <path id="Path_3483" data-name="Path 3483" d="M153.709,446.482a62.5,62.5,0,1,0-62.5-62.5,62.5,62.5,0,0,0,62.5,62.5" transform="translate(-91.209 -321.482)" fill="#eaf3fe"/>
  <path id="Path_3484" data-name="Path 3484" d="M175.63,412.479a2.2,2.2,0,0,1-2.192,2.192H133.981a2.2,2.2,0,0,1-2.192-2.192V355.5a2.211,2.211,0,0,1,2.192-2.207h24.113v14.263a3.274,3.274,0,0,0,3.273,3.275l.015,0H175.63Zm-13.152-59.1a2.169,2.169,0,0,1,1.013.575l11.495,11.5a2.142,2.142,0,0,1,.575,1.014H162.478Zm15.6,8.96L166.588,350.84a6.589,6.589,0,0,0-4.644-1.931H133.981A6.6,6.6,0,0,0,127.4,355.5v56.979a6.579,6.579,0,0,0,6.576,6.576h39.457a6.578,6.578,0,0,0,6.576-6.576V366.995a6.615,6.615,0,0,0-1.931-4.66" transform="translate(-91.209 -321.482)" fill="#463ba8"/>
  <line id="Line_129" data-name="Line 129" x2="26.629" transform="translate(48.911 56.621)" fill="none" stroke="#6edcf9" stroke-linecap="round" stroke-width="1.467"/>
  <line id="Line_130" data-name="Line 130" x2="26.629" transform="translate(48.911 67.696)" fill="none" stroke="#6edcf9" stroke-linecap="round" stroke-width="1.467"/>
  <line id="Line_131" data-name="Line 131" x2="26.629" transform="translate(48.911 78.772)" fill="none" stroke="#6edcf9" stroke-linecap="round" stroke-width="1.467"/>
</svg>
