<svg id="Component_57_3" data-name="Component 57 – 3" xmlns="http://www.w3.org/2000/svg" width="125" height="125" viewBox="0 0 125 125">
  <path id="Path_3491" data-name="Path 3491" d="M1207.544,446.482a62.5,62.5,0,1,0-62.5-62.5,62.5,62.5,0,0,0,62.5,62.5" transform="translate(-1145.044 -321.482)" fill="#eaf3fe"/>
  <path id="Path_3492" data-name="Path 3492" d="M1230.33,361.2h-45.573v-9.114h45.573Zm-4.557,54.687h-36.459v-50.13h36.459Zm5.7-68.359h-47.853a3.427,3.427,0,0,0-3.417,3.418v11.393a3.427,3.427,0,0,0,3.417,3.418h1.14v50.13a4.571,4.571,0,0,0,4.557,4.558h36.459a4.572,4.572,0,0,0,4.557-4.558v-50.13h1.14a3.429,3.429,0,0,0,3.418-3.418V350.942a3.429,3.429,0,0,0-3.418-3.418" transform="translate(-1145.044 -321.482)" fill="#463ba8"/>
  <path id="Path_3493" data-name="Path 3493" d="M1195.011,393.1h7.975v7.974a1.146,1.146,0,0,0,1.139,1.14h6.837a1.146,1.146,0,0,0,1.139-1.14V393.1h7.975a1.146,1.146,0,0,0,1.139-1.14v-6.835a1.146,1.146,0,0,0-1.139-1.14H1212.1v-7.975a1.147,1.147,0,0,0-1.139-1.139h-6.837a1.147,1.147,0,0,0-1.139,1.139v7.975h-7.975a1.146,1.146,0,0,0-1.139,1.14v6.835a1.147,1.147,0,0,0,1.139,1.14" transform="translate(-1145.044 -321.482)" fill="#6edcf9"/>
</svg>
