<svg id="Component_55_3" data-name="Component 55 – 3" xmlns="http://www.w3.org/2000/svg" width="125" height="125" viewBox="0 0 125 125">
  <path id="Path_3485" data-name="Path 3485" d="M507.136,446.482a62.5,62.5,0,1,0-62.5-62.5,62.5,62.5,0,0,0,62.5,62.5" transform="translate(-444.636 -321.482)" fill="#eaf3fe"/>
  <path id="Path_3486" data-name="Path 3486" d="M508.011,415.4a2.3,2.3,0,0,1-1.735,0c-13.8-5.465-28.468-24.646-28.468-49.465a2.267,2.267,0,0,1,1.381-2.086l27.073-11.281a2.3,2.3,0,0,1,1.733,0l27.075,11.281a2.224,2.224,0,0,1,1.381,2.086c.014,24.818-14.65,43.995-28.44,49.465m28.806-55.711-27.071-11.283a6.794,6.794,0,0,0-5.205,0l-27.072,11.28a6.762,6.762,0,0,0-4.174,6.247c0,27.991,16.145,47.335,31.232,53.625a6.78,6.78,0,0,0,5.2,0c12.085-5.034,31.248-22.419,31.248-53.625a6.771,6.771,0,0,0-4.161-6.244" transform="translate(-444.636 -321.482)" fill="#463ba8"/>
  <path id="Path_3487" data-name="Path 3487" d="M527.215,369.574a1.706,1.706,0,0,0-2.4-.014l-23.045,22.857-9.729-9.8a1.707,1.707,0,0,0-2.4-.014l-1.2,1.2a1.708,1.708,0,0,0-.014,2.4l12.112,12.21a1.706,1.706,0,0,0,2.4.015L528.4,373.186a1.708,1.708,0,0,0,.015-2.4Z" transform="translate(-444.636 -321.482)" fill="#6edcf9"/>
</svg>
