<svg xmlns="http://www.w3.org/2000/svg" width="87.97" height="74.516" viewBox="0 0 87.97 74.516">
  <g id="medicare_icon" data-name="medicare icon" transform="translate(-1081 -2110)">
    <path id="Vector" d="M43.989,74.516l-1.215-.922A401.818,401.818,0,0,1,7.286,42.524,24.907,24.907,0,1,1,42.508,7.3c.516.516,1.012,1.055,1.481,1.613.469-.562.965-1.1,1.477-1.613A24.907,24.907,0,1,1,80.687,42.524,402.775,402.775,0,0,1,45.2,73.594ZM24.895,4A20.906,20.906,0,0,0,10.114,39.691,398.581,398.581,0,0,0,43.989,69.468,398.569,398.569,0,0,0,77.864,39.691,20.908,20.908,0,0,0,48.3,10.121a21.268,21.268,0,0,0-2.641,3.23l-1.664,2.5-1.664-2.5a21.027,21.027,0,0,0-2.645-3.23A20.8,20.8,0,0,0,24.9,4Z" transform="translate(1081 2110)" fill="#463ba8"/>
    <path id="Vector-2" data-name="Vector" d="M8.842,0V8.842H0v6.316H8.842V24h6.316V15.158H24V8.842H15.158V0Z" transform="translate(1113 2135)" fill="#6edcf9"/>
  </g>
</svg>
