<?xml version="1.0" encoding="utf-8"?>
<!-- Generator: Adobe Illustrator 25.2.1, SVG Export Plug-In . SVG Version: 6.00 Build 0)  -->
<svg version="1.1" id="Layer_1" xmlns="http://www.w3.org/2000/svg" xmlns:xlink="http://www.w3.org/1999/xlink" x="0px" y="0px"
	 viewBox="0 0 792 612" style="enable-background:new 0 0 792 612;" xml:space="preserve">
<style type="text/css">
	.st0{fill:#0BB47A;}
	.st1{fill:#FFFFFF;}
	.st2{fill:#DCDCE6;}
</style>
<g id="Group_535" transform="translate(-176 -33)">
	<g id="Trustpilot_ratings_5star-RGB">
		<g id="Group_534">
			<g id="Group_533">
				<rect id="Rectangle-path" x="491.86" y="323.88" class="st0" width="30" height="30"/>
				<rect id="Rectangle-path-2" x="524.36" y="323.88" class="st0" width="30" height="30"/>
				<rect id="Rectangle-path-3" x="556.86" y="323.88" class="st0" width="30" height="30"/>
				<rect id="Rectangle-path-4" x="589.36" y="323.88" class="st0" width="30" height="30"/>
				<rect id="Rectangle-path-5" x="621.86" y="323.88" class="st0" width="30" height="30"/>
				<path id="Shape" class="st1" d="M506.86,344.1l4.56-1.16l1.91,5.88L506.86,344.1z M517.36,336.51h-8.03l-2.47-7.56l-2.47,7.56
					h-8.03l6.5,4.69l-2.47,7.56l6.5-4.69l4-2.87L517.36,336.51z"/>
				<path id="Shape-2" class="st1" d="M539.36,344.1l4.56-1.16l1.91,5.88L539.36,344.1z M549.86,336.51h-8.03l-2.47-7.56l-2.47,7.56
					h-8.03l6.5,4.69l-2.47,7.56l6.5-4.69l4-2.87L549.86,336.51z"/>
				<path id="Shape-3" class="st1" d="M571.86,344.1l4.56-1.16l1.91,5.88L571.86,344.1z M582.36,336.51h-8.03l-2.47-7.56l-2.47,7.56
					h-8.03l6.5,4.69l-2.47,7.56l6.5-4.69l4-2.87L582.36,336.51z"/>
				<path id="Shape-4" class="st1" d="M604.36,344.1l4.56-1.16l1.91,5.88L604.36,344.1z M614.86,336.51h-8.03l-2.47-7.56l-2.47,7.56
					h-8.03l6.5,4.69l-2.47,7.56l6.5-4.69l4-2.87L614.86,336.51z"/>
				<path id="Shape-5" class="st1" d="M636.86,344.1l4.56-1.16l1.91,5.88L636.86,344.1z M647.36,336.51h-8.03l-2.47-7.56l-2.47,7.56
					h-8.03l6.5,4.69l-2.47,7.56l6.5-4.69l4-2.87L647.36,336.51z"/>
			</g>
		</g>
	</g>
	<rect id="Rectangle-path-6" x="643.11" y="323.88" class="st2" width="8.75" height="30"/>
	<path id="Shape-6" class="st1" d="M636.86,344.1l4.56-1.16l1.91,5.88L636.86,344.1z M647.36,336.51h-8.03l-2.47-7.56l-2.47,7.56
		h-8.03l6.5,4.69l-2.47,7.56l6.5-4.69l4-2.87L647.36,336.51z"/>
</g>
</svg>
