<?xml version="1.0" encoding="utf-8"?>
<!-- Generator: Adobe Illustrator 25.2.1, SVG Export Plug-In . SVG Version: 6.00 Build 0)  -->
<svg version="1.1" id="Layer_1" xmlns="http://www.w3.org/2000/svg" xmlns:xlink="http://www.w3.org/1999/xlink" x="0px" y="0px"
	 viewBox="0 0 792 612" style="enable-background:new 0 0 792 612;" xml:space="preserve">
<style type="text/css">
	.st0{fill:#4A449B;}
</style>
<path id="user-circle-solid" class="st0" d="M395.86,291.88c-7.73,0-14,6.27-14,14c0,7.73,6.27,14,14,14c7.73,0,14-6.27,14-14
	C409.86,298.15,403.59,291.88,395.86,291.88z M395.86,297.3c2.74,0,4.97,2.22,4.97,4.97c0,2.74-2.22,4.97-4.97,4.97
	s-4.97-2.22-4.97-4.97C390.89,299.52,393.11,297.3,395.86,297.3C395.86,297.3,395.86,297.3,395.86,297.3z M395.86,316.72
	c-3.19,0-6.22-1.41-8.27-3.85c1.08-2.07,3.22-3.37,5.56-3.38c0.14,0,0.27,0.02,0.4,0.06c0.74,0.25,1.52,0.38,2.31,0.39
	c0.79-0.01,1.56-0.14,2.31-0.39c0.13-0.04,0.26-0.06,0.4-0.06c2.34,0.01,4.48,1.31,5.56,3.38
	C402.07,315.31,399.04,316.72,395.86,316.72L395.86,316.72z"/>
</svg>
